<svg width="66" height="64" viewBox="0 0 66 64" fill="none" xmlns="http://www.w3.org/2000/svg">
<path fill-rule="evenodd" clip-rule="evenodd" d="M13.2868 11.018C14.0041 9.9421 14.8409 8.98574 15.7973 8.02939C16.5145 7.19258 17.2318 6.47531 18.1882 5.87759C18.9054 6.47531 19.8618 6.83394 20.5791 7.31212C19.6227 8.50757 18.6663 9.70301 17.9491 11.018C18.1882 11.1375 18.5468 11.1375 18.9054 11.018C19.6227 9.9421 20.4595 8.74666 21.5354 7.7903C22.8504 8.26848 24.0459 8.74666 25.4804 9.10529L25.5999 9.22483L24.7631 11.018C25.1218 11.1375 25.3608 11.018 25.7195 11.018C25.9586 10.5398 26.1977 9.9421 26.5563 9.46392C28.3495 9.82256 30.1426 10.0616 32.0553 10.0616C32.2944 10.3007 32.1749 10.7789 32.2944 11.018H33.0117C33.1312 10.7789 33.0117 10.4203 33.1312 10.1812C34.9244 10.0616 36.8371 9.82256 38.5107 9.46392H38.7498L39.5866 11.018C39.8257 11.018 40.1844 11.1375 40.4235 11.018L39.5866 9.22483L39.7062 9.10529C41.1407 8.74666 42.4557 8.26848 43.7707 7.67075C44.7271 8.62711 45.6834 9.82256 46.4007 11.018C46.7593 11.018 47.118 11.018 47.357 11.018C46.9984 10.3007 46.5202 9.58347 46.0421 9.10529C45.6834 8.50757 45.2052 7.90984 44.7271 7.43166V7.19258L46.8789 5.99713L47.118 5.87759C49.0307 7.31212 50.7043 9.10529 52.0193 11.018C52.3779 11.018 52.7366 11.1375 52.9756 10.8985C48.9111 4.68214 42.0971 0.737165 34.6853 0.139442H34.5658C33.729 0.0198975 32.7726 0.0198975 31.8162 0.0198975C31.5772 0.0198975 31.099 0.0198975 30.7403 0.139442C23.3286 0.737165 16.5145 4.56259 12.2109 11.018C12.5696 11.018 12.9282 11.1375 13.2868 11.018ZM25.9586 8.38802C24.6436 8.02939 23.4481 7.67075 22.2527 7.07303V6.95349C24.0459 5.27986 25.839 3.96487 27.7517 2.88897C28.2299 3.12806 28.7081 3.2476 29.1863 3.48669L29.0667 3.72578C27.8713 5.16032 26.9149 6.7144 26.0781 8.26848L25.9586 8.38802ZM26.9149 8.50757C27.8713 6.83394 28.9472 5.27986 30.1426 3.72578L32.1749 4.08442C32.2944 5.6385 32.1749 7.43166 32.1749 9.10529C31.3381 9.22483 30.5013 9.10529 29.6644 9.10529C28.8276 8.98574 27.7517 8.8662 26.9149 8.50757ZM33.1312 9.22483C33.0117 7.55121 33.1312 5.75804 33.1312 4.08442C33.729 3.96487 34.4462 3.84533 35.044 3.72578C36.2394 5.27986 37.4348 6.83394 38.2717 8.50757C36.598 8.98574 34.8049 9.22483 33.1312 9.22483ZM39.228 8.26848C38.2717 6.7144 37.1958 5.04077 36.0003 3.48669C36.4785 3.2476 36.9567 3.12806 37.4348 2.88897C39.4671 3.84533 41.3798 5.27986 43.0534 6.95349L42.9339 7.07303C41.7385 7.55121 40.543 8.02939 39.228 8.26848ZM21.2963 6.59485C20.4595 6.35576 19.7422 5.87759 19.025 5.39941V5.27986C20.9377 3.84533 23.0895 2.76943 25.3608 2.05216L25.5999 1.81307V1.93261C25.839 1.93261 26.0781 1.69352 26.3172 1.93261L26.7954 2.29125C24.8827 3.48669 23.0895 4.92123 21.2963 6.59485ZM43.8903 6.59485C42.3362 4.92123 40.4235 3.48669 38.3912 2.29125L38.9889 1.81307C41.6189 2.41079 44.0098 3.60624 46.2811 5.27986L46.1616 5.39941L44.1293 6.59485H43.8903ZM37.7935 1.57398C35.1635 3.48669 30.7403 3.72578 27.8713 1.93261L27.3931 1.45444C30.7403 0.737166 34.5658 0.61762 37.7935 1.45444V1.57398ZM30.3817 44.2514C29.0667 42.6973 27.9908 41.1432 27.154 39.4696L27.2736 39.2305C28.9472 38.9914 30.6208 38.7523 32.2944 38.7523V43.8928C31.6967 44.0123 30.9794 44.0123 30.3817 44.2514ZM32.2944 37.796C30.3817 37.9155 28.469 38.1546 26.6758 38.5133L25.839 36.8396C25.5999 36.8396 25.2413 36.8396 25.0022 36.9592L25.7195 38.7523C24.2849 39.2305 22.9699 39.7087 21.655 40.1869H21.4159C20.5791 39.2305 19.7422 38.1546 19.1445 37.1983C18.9054 36.6005 18.3077 36.9592 17.9491 36.8396C18.7859 38.2742 19.7422 39.4696 20.6986 40.6651C19.8618 41.1432 19.025 41.741 18.1882 42.0996C16.2755 40.6651 14.6018 38.8719 13.2868 36.9592C12.9282 36.8396 12.6891 36.8396 12.3305 36.9592C14.4823 40.426 17.9491 43.4146 21.655 45.2078V45.3273C24.0459 46.5227 26.6758 47.3596 29.4254 47.7182C38.8694 49.0332 47.9548 44.9687 53.2147 36.9592C52.8561 36.8396 52.4975 36.8396 52.1388 36.9592C50.9434 38.7523 49.2698 40.5455 47.4766 41.9801H47.118C46.4007 41.5019 45.5639 41.0237 44.8466 40.5455C45.803 39.3501 46.7593 38.1546 47.4766 36.8396H46.5202C45.803 38.0351 44.9662 39.2305 44.0098 40.1869C42.5753 39.7087 41.3798 39.111 39.9453 38.7523L39.8257 38.6328C40.0648 38.0351 40.4235 37.4374 40.543 36.8396H39.7062L38.8694 38.5133C37.0762 38.1546 35.044 37.9155 33.2508 37.796C33.1312 37.5569 33.2508 37.0787 33.1312 36.8396H32.2944C32.2944 37.1983 32.414 37.5569 32.2944 37.796ZM26.1977 39.5892C27.154 41.2628 28.2299 42.9364 29.3058 44.4905C28.9472 44.7296 28.3495 44.8491 27.9908 45.0882C25.9586 44.1319 23.9263 42.6973 22.3722 41.0237V40.9042C23.5677 40.3064 24.7631 39.9478 26.0781 39.5892H26.1977ZM27.8713 46.2837C30.7403 44.3709 35.1635 44.3709 37.913 46.4032L37.7935 46.5227C34.4462 47.24 30.8599 47.3596 27.6322 46.5227L27.8713 46.2837ZM21.4159 41.3823C23.0895 43.1755 25.0022 44.4905 26.9149 45.6859L26.3172 46.1641C23.6872 45.5664 21.2963 44.3709 19.1445 42.6973C19.8618 42.2191 20.5791 41.741 21.4159 41.3823ZM33.2508 43.8928C33.2508 42.0996 33.1312 40.5455 33.2508 38.7523C35.044 38.7523 36.7176 38.9914 38.3912 39.3501V39.4696C37.5544 41.1432 36.4785 42.6973 35.283 44.1319C34.8049 44.2514 34.3267 44.0123 33.729 44.0123L33.2508 43.8928ZM36.3589 44.3709C37.4348 42.8169 38.5107 41.2628 39.3476 39.7087L39.4671 39.5892C40.7821 39.9478 41.9775 40.3064 43.173 40.9042C42.2166 42.0996 40.9016 43.056 39.7062 43.8928C39.1085 44.2514 38.3912 44.7296 37.5544 45.0882L36.2394 44.4905L36.3589 44.3709ZM38.6303 45.5664C40.6625 44.4905 42.4557 43.056 44.1293 41.3823C44.9662 41.6214 45.6834 42.0996 46.5202 42.6973C44.7271 44.0123 42.6948 44.9687 40.6625 45.6859L39.228 46.1641C38.9889 46.0446 38.7498 45.925 38.6303 45.6859V45.5664Z" fill="white"/>
<path fill-rule="evenodd" clip-rule="evenodd" d="M14.8412 29.4279V18.6689H14.9608L17.9494 18.5493C17.9494 16.8757 18.0689 14.963 17.9494 13.4089L6.35354 13.2893L4.44083 13.4089C4.32129 14.963 4.32129 16.8757 4.44083 18.5493C5.39719 18.5493 6.47309 18.5493 7.42945 18.6689V29.0692V29.4279L4.32129 29.5474C4.32129 31.221 4.32129 32.8947 4.32129 34.5683H17.9494V29.5474C16.993 29.4279 15.7976 29.5474 14.8412 29.4279ZM21.2966 14.8434C19.2644 16.278 18.6666 18.9079 19.2644 21.2988C19.623 23.4506 21.7748 25.1243 23.6875 25.8415C26.437 26.7979 29.3061 27.5152 32.0556 28.4715C32.4143 28.5911 32.7729 28.9497 32.6534 29.1888C32.6534 29.5474 32.4143 29.667 32.1752 29.7865C29.3061 30.6233 26.198 30.0256 24.0462 27.7542C23.8071 27.5152 23.6875 27.037 23.4484 26.7979H19.2644C19.1448 29.3083 19.1448 32.1774 19.2644 34.5683H23.9266V33.1337C24.5243 33.3728 25.0025 33.6119 25.4807 33.9706C28.7084 35.2856 32.8925 35.5246 36.0006 33.9706C38.3915 32.6556 39.587 30.1451 39.2283 27.5152C38.8697 24.8852 36.4788 22.4943 33.9684 21.8966L26.437 19.7448L25.9589 19.3861C25.7198 19.2666 25.4807 18.9079 25.6002 18.6689C26.198 17.593 27.5129 17.9516 28.5888 17.9516C30.7407 18.1907 32.8925 19.0275 34.2074 20.9402C35.5224 20.9402 37.0765 20.9402 38.6306 20.9402C38.6306 18.4298 38.5111 16.278 38.5111 13.648C37.1961 13.648 35.4029 13.648 34.0879 13.7675C33.9684 14.1262 34.0879 14.6043 33.9684 14.963L32.5338 14.2457C29.1866 12.8112 24.4048 12.5721 21.2966 14.8434ZM44.4883 14.7239C42.2169 15.9193 40.6629 18.1907 40.3042 20.5816C39.4674 24.407 39.587 29.0692 42.5756 32.0578C46.0424 35.0465 51.0632 35.7637 55.6059 34.4487C55.7255 34.4487 56.4427 34.2096 56.9209 33.9706H57.0405C58.3555 33.3728 59.79 32.4165 60.7463 31.1015C63.0177 27.7542 63.1372 22.7334 61.8222 18.9079C61.2245 17.4734 60.0291 16.1584 58.7141 15.2021C54.6496 12.5721 48.5528 12.4525 44.4883 14.7239ZM48.6723 26.3197C48.5528 24.1679 48.4333 21.8966 49.031 19.9838C49.3896 18.7884 50.7046 18.5493 51.9 18.4298C53.0955 18.4298 54.2909 18.6689 55.0082 19.6252C55.4864 20.3425 55.4864 21.1793 55.6059 22.0161C55.6059 23.8093 55.7255 25.8415 55.3668 27.6347C55.2473 28.352 54.7691 29.1888 53.9323 29.4279C52.7369 30.0256 51.0632 29.7865 49.8678 29.1888C48.9114 28.4715 48.7919 27.3956 48.6723 26.3197Z" fill="white"/>
<path fill-rule="evenodd" clip-rule="evenodd" d="M6.83172 62.7806H0.854492V61.7048L3.12584 59.4335C3.72356 58.7162 4.20174 58.2379 4.44083 57.9988C4.67992 57.7597 4.79946 57.4012 4.91901 57.1621C5.03855 56.923 5.03855 56.6838 5.03855 56.4447C5.03855 55.9666 4.91901 55.7276 4.67992 55.4885C4.44083 55.2494 4.20174 55.1299 3.72356 55.1299C3.36493 55.1299 3.00629 55.1298 2.7672 55.2493C2.40857 55.3688 2.04994 55.6079 1.6913 55.9666L0.854492 55.0103C1.33267 54.6517 1.81085 54.293 2.28903 54.1735C2.7672 53.9344 3.24538 53.9344 3.8431 53.9344C4.56037 53.9344 5.27764 54.1734 5.75582 54.532C6.234 55.0102 6.47309 55.4885 6.47309 56.2058C6.47309 56.6839 6.47309 57.0426 6.234 57.4012C6.11445 57.7598 5.87536 58.1184 5.63627 58.477C5.27764 58.8356 4.79946 59.4334 4.20174 60.0311L2.64766 61.4657V61.5852H6.83172V62.7806ZM8.86398 62.7806L12.3308 55.2493H7.78808V54.0539H13.7653V55.0103L10.4181 62.7806H8.86398ZM20.8184 58.3575C20.8184 59.9115 20.5794 61.1071 20.1012 61.8244C19.623 62.5416 18.7862 62.9003 17.8298 62.9003C16.8735 62.9003 16.1562 62.5416 15.5585 61.8244C15.0803 60.9875 14.8412 59.9115 14.8412 58.3575C14.8412 56.9229 15.0803 55.7276 15.5585 55.0103C16.0367 54.293 16.8735 53.9344 17.8298 53.9344C18.7862 53.9344 19.5035 54.293 20.1012 55.0103C20.5794 55.8471 20.8184 56.9229 20.8184 58.3575ZM16.2758 58.3575C16.2758 59.5529 16.3953 60.5094 16.6344 60.9875C16.8735 61.4657 17.2321 61.7048 17.8298 61.7048C18.308 61.7048 18.7862 61.4657 19.0253 60.9875C19.2644 60.3898 19.3839 59.5529 19.3839 58.3575C19.3839 57.2816 19.2644 56.4448 19.0253 55.8471C18.7862 55.3689 18.308 55.1299 17.8298 55.1299C17.2321 55.1299 16.8735 55.3689 16.6344 55.8471C16.3953 56.3253 16.2758 57.162 16.2758 58.3575ZM27.752 58.3575C27.752 59.9115 27.5129 61.1071 27.0348 61.8244C26.5566 62.5416 25.8393 62.9003 24.883 62.9003C23.8071 62.9003 23.0898 62.5416 22.6116 61.8244C22.1334 60.9875 21.8943 59.9115 21.8943 58.3575C21.8943 56.9229 22.1334 55.7276 22.6116 55.0103C23.0898 54.293 23.8071 53.9344 24.883 53.9344C25.8393 53.9344 26.5566 54.293 27.0348 55.0103C27.5129 55.8471 27.752 56.9229 27.752 58.3575ZM23.3289 58.3575C23.3289 59.5529 23.4484 60.5094 23.6875 60.9875C23.9266 61.4657 24.2852 61.7048 24.883 61.7048C25.3611 61.7048 25.7198 61.4657 25.9589 60.9875C26.3175 60.3898 26.437 59.5529 26.437 58.3575C26.437 57.2816 26.3175 56.4448 25.9589 55.8471C25.7198 55.3689 25.3611 55.1299 24.883 55.1299C24.2852 55.1299 23.9266 55.3689 23.6875 55.8471C23.4484 56.3253 23.3289 57.162 23.3289 58.3575ZM33.012 62.7806H31.5775V57.1621C31.5775 56.4448 31.5775 55.9667 31.697 55.4885C31.5775 55.608 31.4579 55.7276 31.3384 55.8471C31.2188 55.9667 30.7406 56.3252 29.9038 56.9229L29.3061 56.0861L31.8165 54.0539H33.012V62.7806ZM36.1202 62.0633C36.1202 61.7047 36.2397 61.5853 36.3592 61.3462C36.4788 61.2266 36.7179 61.107 37.0765 61.107C37.3156 61.107 37.5547 61.2266 37.6742 61.3462C37.7938 61.5853 37.9133 61.7047 37.9133 62.0633C37.9133 62.3024 37.7938 62.5415 37.6742 62.6611C37.5547 62.9002 37.3156 63.0198 37.0765 63.0198C36.7179 63.0198 36.4788 62.9002 36.3592 62.6611C36.2397 62.5415 36.1202 62.3024 36.1202 62.0633ZM36.1202 56.9229C36.1202 56.3252 36.4788 55.9666 37.0765 55.9666C37.3156 55.9666 37.5547 56.0862 37.6742 56.2058C37.7938 56.4448 37.9133 56.6838 37.9133 56.9229C37.9133 57.162 37.7938 57.4011 37.6742 57.6402C37.5547 57.7597 37.3156 57.8794 37.0765 57.8794C36.7179 57.8794 36.4788 57.7597 36.3592 57.6402C36.2397 57.4011 36.1202 57.162 36.1202 56.9229ZM45.2055 62.7806H39.2283V61.7048L41.4997 59.4335C42.2169 58.7162 42.5756 58.2379 42.8147 57.9988C43.0537 57.7597 43.1733 57.4012 43.2928 57.1621C43.4124 56.923 43.4124 56.6838 43.4124 56.4447C43.4124 55.9666 43.2928 55.7276 43.0537 55.4885C42.8147 55.2494 42.5756 55.1299 42.0974 55.1299C41.7387 55.1299 41.4997 55.1298 41.141 55.2493C40.7824 55.3688 40.4238 55.6079 40.0651 55.9666L39.3479 55.0103C39.826 54.6517 40.3042 54.293 40.6628 54.1735C41.141 53.9344 41.6192 53.9344 42.2169 53.9344C43.0537 53.9344 43.6515 54.1734 44.1296 54.532C44.6078 55.0102 44.8469 55.4885 44.8469 56.2058C44.8469 56.6839 44.8469 57.0426 44.7274 57.4012C44.4883 57.7598 44.3687 58.1184 44.0101 58.477C43.771 58.8356 43.2928 59.4334 42.5756 60.0311L41.0215 61.4657V61.5852H45.2055V62.7806ZM52.1391 58.3575C52.1391 59.9115 51.9 61.1071 51.4219 61.8244C50.9437 62.5416 50.2264 62.9003 49.2701 62.9003C48.1942 62.9003 47.4769 62.5416 46.9987 61.8244C46.5205 60.9875 46.2814 59.9115 46.2814 58.3575C46.2814 56.9229 46.5205 55.7276 46.9987 55.0103C47.4769 54.293 48.1942 53.9344 49.2701 53.9344C50.2264 53.9344 50.9437 54.293 51.4219 55.0103C51.9 55.8471 52.1391 56.9229 52.1391 58.3575ZM47.716 58.3575C47.716 59.5529 47.8355 60.5094 48.0746 60.9875C48.3137 61.4657 48.6723 61.7048 49.2701 61.7048C49.7482 61.7048 50.1069 61.4657 50.346 60.9875C50.7046 60.3898 50.8241 59.5529 50.8241 58.3575C50.8241 57.2816 50.7046 56.4448 50.346 55.8471C50.1069 55.3689 49.7482 55.1299 49.2701 55.1299C48.6723 55.1299 48.3137 55.3689 48.0746 55.8471C47.8355 56.3253 47.716 57.162 47.716 58.3575Z" fill="white"/>
<path fill-rule="evenodd" clip-rule="evenodd" d="M58.8317 62.8662H52.8545V61.7903L55.1259 59.519C55.8431 58.8017 56.2018 58.3235 56.4409 58.0844C56.6799 57.8453 56.7995 57.4867 56.919 57.2476C57.0386 57.0085 57.0386 56.7694 57.0386 56.5303C57.0386 56.0522 56.919 55.8131 56.6799 55.574C56.4409 55.3349 56.2018 55.2154 55.7236 55.2154C55.3649 55.2154 55.1259 55.2154 54.7672 55.3349C54.4086 55.4544 54.05 55.6935 53.6913 56.0522L52.9741 55.0958C53.4522 54.7372 53.9304 54.3785 54.289 54.259C54.7672 54.0199 55.2454 54.0199 55.8431 54.0199C56.6799 54.0199 57.2777 54.259 57.7558 54.6176C58.234 55.0958 58.4731 55.574 58.4731 56.2913C58.4731 56.7694 58.4731 57.1281 58.3536 57.4867C58.1145 57.8453 57.9949 58.204 57.6363 58.5626C57.3972 58.9212 56.919 59.519 56.2018 60.1167L54.6477 61.5512V61.6708H58.8317V62.8662Z" fill="white"/>
<path fill-rule="evenodd" clip-rule="evenodd" d="M65.8317 62.8662H59.8545V61.7903L62.1259 59.519C62.8431 58.8017 63.2018 58.3235 63.4409 58.0844C63.6799 57.8453 63.7995 57.4867 63.919 57.2476C64.0386 57.0085 64.0386 56.7694 64.0386 56.5303C64.0386 56.0522 63.919 55.8131 63.6799 55.574C63.4409 55.3349 63.2018 55.2154 62.7236 55.2154C62.3649 55.2154 62.1259 55.2154 61.7672 55.3349C61.4086 55.4544 61.05 55.6935 60.6913 56.0522L59.9741 55.0958C60.4522 54.7372 60.9304 54.3785 61.289 54.259C61.7672 54.0199 62.2454 54.0199 62.8431 54.0199C63.6799 54.0199 64.2777 54.259 64.7558 54.6176C65.234 55.0958 65.4731 55.574 65.4731 56.2913C65.4731 56.7694 65.4731 57.1281 65.3536 57.4867C65.1145 57.8453 64.9949 58.204 64.6363 58.5626C64.3972 58.9212 63.919 59.519 63.2018 60.1167L61.6477 61.5512V61.6708H65.8317V62.8662Z" fill="white"/>
</svg>
