<svg width="34px" height="41px" viewBox="0 0 34 41" fill="none" xmlns="http://www.w3.org/2000/svg" transform="rotate(0) scale(1, 1)">
<path d="M0.890501 31.7669C0.830928 31.9332 0.840043 32.1165 0.915567 32.2763L3.91568 38.6145C4.07324 38.9481 4.47201 39.0897 4.80341 38.9319L6.88649 37.9461L17.7424 40.3346C17.9217 40.374 18.1047 40.3935 18.2873 40.3935C18.6636 40.3935 19.039 40.3108 19.3808 40.149L31.5928 34.3685C32.2084 34.0775 32.6736 33.5638 32.9028 32.9225C33.1319 32.2812 33.0977 31.5888 32.8064 30.9736C32.5154 30.358 32.0017 29.8928 31.3604 29.6633C30.7188 29.4338 30.0273 29.4683 29.4114 29.7596L21.1728 33.6592C21.1621 33.6348 21.151 33.6104 21.1396 33.5863C20.8642 33.0042 20.3782 32.5641 19.7717 32.3476L14.7133 30.5393C14.6781 30.5266 14.6433 30.512 14.6091 30.4957L10.9176 28.717C9.64603 28.1043 8.18374 28.0994 6.90635 28.7033L1.23296 31.3886C1.07312 31.4641 0.949748 31.6002 0.890501 31.7669ZM7.47668 29.9084C8.3885 29.4777 9.43151 29.481 10.3388 29.9182L14.03 31.6969C14.1068 31.734 14.1859 31.7669 14.2653 31.7949L19.3231 33.6032C19.5943 33.6999 19.8114 33.8965 19.9345 34.1569C20.0019 34.2989 20.0367 34.4509 20.0387 34.6036C20.0383 34.6133 20.0383 34.6231 20.0387 34.6329C20.037 34.7497 20.0159 34.8673 19.9755 34.9805C19.775 35.5405 19.1578 35.8347 18.5972 35.6329L13.9714 33.9795C13.627 33.8568 13.2435 34.0362 13.1191 34.3832C12.9954 34.7299 13.1761 35.1114 13.5228 35.2354L18.1486 36.8888C19.4003 37.3351 20.7832 36.6808 21.2311 35.4295C21.2744 35.3077 21.3079 35.184 21.3314 35.0596L29.9817 30.9648C30.2747 30.8258 30.6055 30.8092 30.9115 30.9189C31.2175 31.0282 31.4623 31.2503 31.6013 31.5439C31.7403 31.8375 31.7566 32.1676 31.6472 32.4736C31.5378 32.7796 31.3161 33.0244 31.0225 33.1634L18.8104 38.9439C18.5679 39.0582 18.2906 39.0894 18.0288 39.0324L6.9503 36.5949C6.90309 36.5844 6.85491 36.5792 6.80706 36.5792C6.70908 36.5792 6.61142 36.6007 6.52189 36.6434L4.83563 37.4416L2.40586 32.3086L7.47668 29.9084Z" fill="#cc5500"/>
<path d="M10.7134 24.227C12.7301 25.9143 15.1875 27.1825 18.0177 27.9964C18.0779 28.0136 18.1398 28.0224 18.202 28.0224C18.2641 28.0224 18.3263 28.0136 18.3865 27.9964C21.2125 27.1819 23.6677 25.9136 25.6853 24.2261C29.0471 21.3995 30.9752 17.1457 30.9752 12.5551V3.2318C30.9752 3.04103 30.8935 2.85939 30.7509 2.73308C30.6084 2.60677 30.4208 2.5472 30.2288 2.56999C22.4638 3.50817 18.6561 0.567634 18.6203 0.539313C18.3781 0.343993 18.0301 0.343993 17.7859 0.53736C17.7485 0.567309 13.9329 3.5072 6.16832 2.56999C5.97789 2.54655 5.78875 2.60677 5.64617 2.73308C5.50358 2.85939 5.42188 3.04103 5.42188 3.2318V12.5551C5.42188 17.1457 7.35001 21.3998 10.7134 24.227ZM6.75526 3.97368C13.2578 4.58666 17.005 2.63835 18.2016 1.87107C19.3973 2.639 23.1423 4.58406 29.6418 3.97368V12.5551C29.6418 16.7512 27.8869 20.6328 24.8285 23.2042C22.999 24.7345 20.7704 25.897 18.2016 26.661C15.6293 25.8977 13.3987 24.7352 11.5702 23.2052C8.51021 20.6332 6.75526 16.7512 6.75526 12.5551V3.97368Z" fill="#cc5500"/>
<path d="M16.9272 16.05C17.0574 16.1802 17.228 16.2453 17.3985 16.2453C17.5691 16.2453 17.7397 16.1802 17.8699 16.05L21.7643 12.1556C22.0247 11.8952 22.0247 11.4733 21.7643 11.2129C21.5038 10.9525 21.082 10.9525 20.8215 11.2129L17.3985 14.6359L15.5678 12.8051C15.3073 12.5447 14.8854 12.5447 14.625 12.8051C14.3646 13.0655 14.3646 13.4874 14.625 13.7478L16.9272 16.05Z" fill="#cc5500"/>
<path d="M18.2298 20.854C22.212 20.854 25.452 17.6143 25.452 13.6321C25.452 9.64986 22.212 6.41016 18.2298 6.41016C14.2475 6.41016 11.0078 9.64986 11.0078 13.6321C11.0078 17.6143 14.2475 20.854 18.2298 20.854ZM18.2298 7.74354C21.477 7.74354 24.1186 10.3852 24.1186 13.6321C24.1186 16.879 21.477 19.5207 18.2298 19.5207C14.9829 19.5207 12.3412 16.879 12.3412 13.6321C12.3412 10.3852 14.9829 7.74354 18.2298 7.74354Z" fill="#cc5500"/>
</svg>