<svg width="39px" height="41px" viewBox="0 0 39 41" fill="none" xmlns="http://www.w3.org/2000/svg" transform="rotate(0) scale(1, 1)">
<path d="M14.4814 18.1532C14.1898 17.6496 14.3621 17.0002 14.8657 16.7086C15.3693 16.4171 16.0187 16.5894 16.3102 17.093L17.7018 19.5049L22.645 14.5617C23.0559 14.1509 23.7318 14.1509 24.1426 14.5617C24.5534 14.9725 24.5534 15.6484 24.1426 16.0592L18.2186 21.9832C17.7283 22.4736 16.9066 22.3675 16.562 21.7712L14.4814 18.1532ZM19.3981 6.95463C25.1631 6.95463 29.8413 11.6328 29.8413 17.3978C29.8413 23.1627 25.1631 27.8409 19.3981 27.8409C13.6332 27.8409 8.95499 23.1627 8.95499 17.3978C8.95499 11.6328 13.6332 6.95463 19.3981 6.95463ZM25.2823 11.5136C22.0354 8.26665 16.7608 8.26665 13.5139 11.5136C10.267 14.7605 10.267 20.0351 13.5139 23.282C16.7608 26.5289 22.0354 26.5289 25.2823 23.282C28.5293 20.0218 28.5293 14.7605 25.2823 11.5136ZM19.3981 0.394531C28.7811 0.394531 36.3881 8.00159 36.3881 17.3845C36.3881 20.9362 35.3014 24.2362 33.4328 26.9662L38.5086 35.7528C38.9989 36.5745 38.323 37.5021 37.4483 37.3696L32.2533 36.5479L29.4702 39.9671C28.9798 40.6033 28.0654 40.4973 27.7076 39.8611L24.1559 33.7119C21.0547 34.613 17.7283 34.613 14.6404 33.7119L11.0887 39.8611C10.7309 40.4973 9.81641 40.6033 9.32606 39.9671L6.54299 36.5479L1.34793 37.3696C0.459997 37.5154 -0.162882 36.5479 0.261205 35.7925L5.3635 26.9662C0.751557 20.2206 1.61298 11.1425 7.39117 5.3643C10.4525 2.30292 14.7067 0.394531 19.3981 0.394531ZM32.028 28.7554C30.4111 30.5577 28.4232 32.0023 26.1703 32.983L28.7678 37.4756L30.9943 34.7456C31.2461 34.4275 31.6304 34.3082 32.0015 34.3745L35.5797 34.9444L32.028 28.7554ZM12.6127 32.983C10.373 32.0023 8.38512 30.5577 6.76829 28.7686L3.20331 34.9444L6.78154 34.3745C7.13937 34.3082 7.53695 34.4408 7.78875 34.7456L10.0152 37.4756L12.6127 32.983ZM29.9208 6.87511C24.1161 1.07042 14.6934 1.07042 8.88872 6.87511C3.08403 12.6798 3.08403 22.1025 8.88872 27.9072C14.7067 33.7119 24.1161 33.7119 29.9208 27.9072C35.7255 22.1025 35.7255 12.6798 29.9208 6.87511Z" fill="#cc5500"/>
</svg>