<svg xmlns="http://www.w3.org/2000/svg" version="1.1" xmlns:xlink="http://www.w3.org/1999/xlink" width="512" height="512" x="0" y="0" viewBox="0 0 64 64" style="enable-background:new 0 0 512 512" xml:space="preserve" class=""><g><path d="M32 32h-3v-1.353A10 10 0 0 0 34 22v-1h1a3 3 0 0 0 0-6h-.479l.547-1.271A8.077 8.077 0 0 0 31 3.178l-2.79-1.271a10.256 10.256 0 0 0-10.233 1.111L16.4 4.2a6.222 6.222 0 0 0-4.013 8.812L13.382 15H13a3 3 0 0 0 0 6h1v1a10 10 0 0 0 5 8.647V32h-3A15.017 15.017 0 0 0 1 47v6a1 1 0 0 0 1 1h1v8h2v-8h4v8a1 1 0 0 0 1 1h28a1 1 0 0 0 1-1v-8h4v8h2v-8h1a1 1 0 0 0 1-1v-6a15.017 15.017 0 0 0-15-15Zm4-14a1 1 0 0 1-1 1h-1v-2h1a1 1 0 0 1 1 1ZM14.334 8.054A4.251 4.251 0 0 1 17.96 6a4.67 4.67 0 0 1 3.894 2.084l.314.471 1.664-1.11-.314-.47a6.663 6.663 0 0 0-3.771-2.725 8.218 8.218 0 0 1 7.632-.522L30.17 5a6.077 6.077 0 0 1 3.062 7.939l-.067.156-1.27-2.54a1 1 0 0 0-1.5-.353l-1.6 1.2a8 8 0 0 1-9.6 0l-1.6-1.2a1 1 0 0 0-1.5.353l-1.345 2.709-.572-1.144a4.207 4.207 0 0 1 .156-4.066ZM13 19a1 1 0 0 1 0-2h1v2Zm3 3v-6.764l1.358-2.717L18 13a10 10 0 0 0 12 0l.642-.481L32 15.236V22a8 8 0 0 1-16 0Zm8 10a9.986 9.986 0 0 0 3-.461V33a3 3 0 0 1-6 0v-1.461A9.986 9.986 0 0 0 24 32Zm13 29H11V44a1 1 0 0 1 1-1h24a1 1 0 0 1 1 1Zm8-9h-6v-8a3 3 0 0 0-3-3H12a3 3 0 0 0-3 3v8H3v-5a13.015 13.015 0 0 1 13-13h3.1a5 5 0 0 0 9.8 0H32a13.015 13.015 0 0 1 13 13Z" fill="#cc5500" opacity="1" data-original="#000000"></path><path d="M24 47a4 4 0 1 0 4 4 4 4 0 0 0-4-4Zm0 6a2 2 0 1 1 2-2 2 2 0 0 1-2 2ZM52 1a11 11 0 1 0 11 11A11.013 11.013 0 0 0 52 1Zm0 20a9 9 0 1 1 9-9 9.01 9.01 0 0 1-9 9Z" fill="#cc5500" opacity="1" data-original="#000000"></path><path d="m58.707 8.293-2-2a1 1 0 0 0-1.414 0L50 11.586l-1.293-1.293a1 1 0 0 0-1.414 0l-2 2a1 1 0 0 0 0 1.414l4 4a1 1 0 0 0 1.414 0l8-8a1 1 0 0 0 0-1.414ZM50 15.586 47.414 13l.586-.586 1.293 1.293a1 1 0 0 0 1.414 0L56 8.414l.586.586Z" fill="#cc5500" opacity="1" data-original="#000000"></path></g></svg>