<svg width="111" height="33" viewBox="0 0 111 33" fill="none" xmlns="http://www.w3.org/2000/svg">
<path d="M41.1724 16.4054C41.6447 16.7006 42.3516 16.9367 43.2371 17.1138C44.1227 17.35 45.0657 17.409 46.0103 17.409C46.955 17.409 47.7799 17.2909 48.5474 17.0548C49.3149 16.8186 49.9627 16.4644 50.5531 16.0511C51.1435 15.6379 51.5568 15.0475 51.8503 14.4587C52.1455 13.8683 52.3227 13.1615 52.3227 12.394C52.3227 11.4493 52.0275 10.6244 51.4961 9.85691C50.9648 9.14845 50.0218 8.55966 48.7229 8.14639L46.1859 7.31986C45.2413 7.02466 44.5344 6.67043 44.1802 6.3162C43.8259 5.96197 43.6488 5.60775 43.6488 5.01896C43.6488 4.3105 43.944 3.72171 44.4753 3.42652C45.0067 3.13133 45.8316 2.89518 46.8943 2.89518C48.1916 2.89518 49.3133 3.13133 50.3744 3.60364C50.6696 3.72171 50.9057 3.83979 51.0828 3.83979C51.378 3.83979 51.4961 3.66268 51.4961 3.24941V2.42287C51.4961 2.18672 51.4371 1.95057 51.319 1.83249C51.2009 1.71441 51.0238 1.5373 50.7877 1.36018C50.6105 1.24211 50.3153 1.12403 50.0202 1.06499C49.725 0.946917 49.3707 0.887878 49.0165 0.769802C48.6623 0.710763 48.249 0.592688 47.8373 0.533649C47.4241 0.474611 47.0108 0.474609 46.5991 0.474609C45.8316 0.474609 45.0657 0.592687 44.3573 0.769802C43.6488 1.00595 43.001 1.30115 42.4696 1.71441C41.9383 2.18672 41.466 2.65902 41.1724 3.24781C40.8772 3.83819 40.7001 4.48602 40.7001 5.25352C40.7001 6.19813 40.9953 7.08211 41.5857 7.8496C42.1761 8.67614 43.1191 9.26492 44.4769 9.67819L47.073 10.5047C47.9586 10.7999 48.5474 11.0951 48.9016 11.4493C49.2559 11.8036 49.3739 12.2168 49.3739 12.6875C49.3739 13.396 49.0787 13.9848 48.4293 14.3981C47.7799 14.8113 46.955 14.9884 45.7742 14.9884C45.0657 14.9884 44.3589 14.9294 43.6504 14.7523C42.942 14.5752 42.2941 14.3981 41.6447 14.1029C41.4676 14.0438 41.2905 13.9848 41.1724 13.9258C41.0543 13.8667 40.9362 13.8667 40.8182 13.8667C40.523 13.8667 40.4049 14.0438 40.4049 14.4571V15.3427C40.4049 15.5198 40.4639 15.6969 40.523 15.874C40.6411 16.1102 40.8772 16.2282 41.1724 16.4054ZM10.7294 7.67409C10.08 7.55601 9.43216 7.55601 8.84178 7.55601C7.01319 7.55601 5.53883 8.02831 4.4171 8.97133C3.35441 9.91594 2.76562 11.1542 2.76562 12.6875C2.76562 14.1619 3.17889 15.2836 4.06287 16.1676C4.94845 17.0532 6.12761 17.4649 7.66101 17.4649C9.78479 17.4649 11.5543 16.6383 12.9713 14.9868C13.1484 15.4001 13.3255 15.7543 13.5026 16.0495C13.6797 16.3447 13.9159 16.6399 14.152 16.8761C14.3291 17.0532 14.5063 17.1122 14.6834 17.1122C14.8015 17.1122 14.9786 17.0532 15.1557 16.9351L16.2758 16.1676C16.512 15.9905 16.63 15.8134 16.63 15.6363C16.63 15.5182 16.571 15.4001 16.512 15.223C16.2758 14.7507 16.0397 14.3374 15.9216 13.9258C15.8035 13.5125 15.6854 12.9811 15.6854 12.3333V6.43428C15.6854 4.48762 15.1541 3.01326 14.2111 2.00961C13.2665 1.00596 11.615 0.535244 9.4912 0.535244C8.48755 0.535244 7.54453 0.653321 6.65896 0.889474C5.77338 1.12563 5.00748 1.42082 4.4171 1.71601C4.18095 1.83409 4.00383 1.95216 3.94479 2.07024C3.88576 2.18831 3.82672 2.42447 3.82672 2.71966V3.60523C3.82672 3.95946 3.94479 4.19562 4.18095 4.19562C4.23999 4.19562 4.35806 4.19562 4.47614 4.13658C4.59422 4.07754 4.83037 4.0185 5.12556 3.90042C5.77498 3.66427 6.4228 3.42812 7.07223 3.31004C7.72165 3.13293 8.36947 3.07389 9.01889 3.07389C10.3752 3.07389 11.3788 3.36908 11.9692 3.90042C12.5596 4.43177 12.7957 5.43382 12.7957 6.7917V8.08895C12.0267 7.91024 11.3788 7.79216 10.7294 7.67409ZM12.7942 10.8606C12.7942 11.4509 12.7351 11.9807 12.617 12.394C12.499 12.8072 12.3218 13.2205 12.0267 13.5731C11.5543 14.1045 10.964 14.5177 10.3161 14.6933C9.66672 14.8704 9.01889 15.0475 8.42851 15.0475C7.60197 15.0475 6.95415 14.8113 6.54088 14.3981C6.06858 13.9848 5.89146 13.3354 5.89146 12.5104C5.89146 11.6249 6.18665 10.918 6.77703 10.4457C7.36742 9.97339 8.2514 9.73723 9.43216 9.73723C9.9635 9.73723 10.5523 9.79627 11.1427 9.85531C11.7331 9.91435 12.2628 10.0324 12.7942 10.1505V10.8606ZM21.8206 16.1102C21.9387 16.4644 22.0568 16.7006 22.1748 16.8186C22.2929 16.9367 22.5291 16.9957 22.8833 16.9957H24.4167C24.7709 16.9957 25.0071 16.9367 25.1252 16.8186C25.2432 16.7006 25.3613 16.4644 25.4794 16.1102L28.2526 4.48762L31.0848 16.1102C31.1439 16.4644 31.262 16.7006 31.4391 16.8186C31.6162 16.9367 31.8523 16.9957 32.1475 16.9957H33.6809C33.9761 16.9957 34.2123 16.9367 34.3894 16.8186C34.5075 16.7006 34.6846 16.4644 34.7436 16.1102L39.1093 2.18672C39.1683 2.00961 39.2273 1.83249 39.2273 1.71441C39.2273 1.59634 39.2864 1.5373 39.2864 1.41922C39.2864 1.12403 39.1683 0.946916 38.8141 0.946916H37.1626C36.8084 0.946916 36.5722 1.00595 36.4541 1.12403C36.3361 1.24211 36.218 1.47826 36.0999 1.83249L32.9725 13.9258L30.1402 1.89153C30.0812 1.5373 29.9631 1.30115 29.786 1.18307C29.6679 1.06499 29.3727 1.00595 29.0775 1.00595H27.6032C27.2489 1.00595 27.0128 1.06499 26.8947 1.18307C26.7766 1.30115 26.5995 1.47826 26.5405 1.89153L23.7082 13.8093L20.6989 1.83249C20.5808 1.47826 20.4627 1.24211 20.3447 1.12403C20.2266 1.00595 19.9904 0.946916 19.6362 0.946916H17.8667C17.5715 0.946916 17.3943 1.06499 17.3943 1.41922C17.3943 1.5373 17.4534 1.77345 17.5715 2.12768C17.5731 2.12928 21.8206 16.1102 21.8206 16.1102Z" fill="white"/>
<path d="M48.5389 24.8424C41.8724 27.6747 34.6745 29.031 28.067 29.031C18.3321 29.031 8.89396 26.3758 1.28281 21.8921C0.633387 21.4788 0.103639 22.1873 0.692426 22.6596C7.77223 29.031 17.0923 32.8653 27.4767 32.8653C34.8516 32.8653 43.4648 30.5644 49.4229 26.1397C50.3691 25.4918 49.5426 24.4292 48.5389 24.8424Z" fill="#F49819"/>
<path d="M44.8209 22.363C44.2896 22.7172 44.4076 23.2486 44.939 23.1895C46.8266 22.9534 51.0742 22.4811 51.8417 23.4257C52.6092 24.4293 51.0151 28.3817 50.3083 30.2103C50.0721 30.7416 50.5444 30.9778 51.0167 30.5645C54.2032 27.9094 55.0281 22.3056 54.3787 21.5381C53.7883 20.6525 48.1845 19.944 44.8209 22.363Z" fill="#F49819"/>
<path d="M60.6424 13.2762C60.5243 13.2762 60.4062 13.2172 60.4062 13.0401V3.30516C60.4062 3.18708 60.4653 3.06901 60.6424 3.06901H60.9376C61.1147 3.06901 61.1737 3.12804 61.1737 3.30516L61.2328 3.89554C61.6461 3.54131 62.1184 3.30516 62.53 3.12805C62.9417 2.95093 63.3566 2.89189 63.8273 2.89189C64.7719 2.89189 65.4787 3.24612 66.0101 3.89554C66.5414 4.54496 66.8366 5.48798 66.8366 6.6097C66.8366 7.78887 66.5414 8.73349 66.0101 9.44194C65.4787 10.1504 64.7128 10.5046 63.7092 10.5046C62.8236 10.5046 62.0577 10.1504 61.2902 9.50098V13.0401C61.2902 13.1582 61.2312 13.2762 61.0541 13.2762H60.6424ZM63.5911 9.73713C64.3586 9.73713 64.9474 9.50098 65.3607 8.96964C65.7739 8.43829 65.9511 7.67239 65.9511 6.66874C65.9511 4.66304 65.1836 3.65939 63.6502 3.65939C62.8827 3.65939 62.0577 3.95458 61.2902 4.54496V8.73349C61.7035 9.08771 62.0577 9.32387 62.4104 9.44194C62.7662 9.61906 63.1779 9.6781 63.5911 9.73713ZM70.3167 10.4456C69.6673 10.4456 69.1375 10.2685 68.7243 9.85521C68.37 9.50098 68.1339 8.96964 68.1339 8.32181C68.1339 7.61335 68.37 7.08361 68.8423 6.67034C69.3146 6.25707 69.9625 6.07996 70.789 6.07996C71.4384 6.07996 72.0862 6.19803 72.8537 6.43418V5.25502C72.8537 4.66463 72.7357 4.25137 72.4405 4.01681C72.1453 3.78066 71.732 3.66258 71.0842 3.66258C70.4348 3.66258 69.7279 3.78066 69.0195 4.01681C68.9604 4.01681 68.8423 4.07585 68.7833 4.07585C68.6652 4.07585 68.6652 4.01681 68.6652 3.89873V3.66258C68.6652 3.60354 68.6652 3.5445 68.7243 3.48546L68.8423 3.36739C69.6098 3.0722 70.3757 2.89508 71.2613 2.89508C72.1469 2.89508 72.7357 3.0722 73.1489 3.42643C73.5622 3.78066 73.7393 4.312 73.7393 5.01886V10.093C73.7393 10.211 73.6803 10.3291 73.5032 10.3291H73.208C73.0899 10.3291 72.9718 10.2701 72.9718 10.093L72.9128 9.50258C72.0862 10.1504 71.2023 10.5046 70.3167 10.4456ZM70.4348 9.73713C70.789 9.73713 71.2023 9.6781 71.6139 9.50098C72.0272 9.32387 72.4405 9.14675 72.9112 8.85156V7.08201C72.2953 6.91607 71.6602 6.83788 71.0236 6.84586C69.6673 6.84586 69.0179 7.3772 69.0179 8.37926C69.0179 8.85156 69.1359 9.14675 69.3721 9.38291C69.6082 9.61906 69.9625 9.6781 70.4348 9.73713ZM76.1567 10.3275C76.0386 10.3275 75.9205 10.2685 75.9205 10.0914V3.30675C75.9205 3.18868 75.9796 3.0706 76.1567 3.0706H76.4519C76.629 3.0706 76.688 3.12964 76.688 3.30675L76.7471 4.13329C77.1013 3.72002 77.4555 3.42483 77.8098 3.30675C78.164 3.12964 78.5773 3.0706 78.9889 3.0706H79.3432C79.4612 3.0706 79.5793 3.12964 79.5793 3.30675V3.66098C79.5793 3.72002 79.5793 3.72002 79.5203 3.77906C79.5203 3.8381 79.4612 3.8381 79.4022 3.8381H78.8709C78.4576 3.8381 78.0443 3.89714 77.6917 4.07425C77.3375 4.25137 77.0423 4.48752 76.688 4.84175V10.093C76.688 10.211 76.629 10.3291 76.4519 10.3291C76.4519 10.3275 76.1567 10.3275 76.1567 10.3275ZM83.3546 10.3866C82.7642 10.3866 82.3509 10.2685 82.0573 9.91425C81.7621 9.61906 81.585 9.20579 81.585 8.617V3.8381H80.4649C80.3468 3.8381 80.2287 3.77906 80.2287 3.60194V3.48387C80.2287 3.42483 80.2287 3.36579 80.2878 3.30675C80.3468 3.24772 80.3468 3.24772 80.4649 3.24772L81.6441 3.12964L81.7621 1.24201C81.7621 1.18297 81.8212 1.12394 81.8212 1.0649C81.8212 1.00586 81.8802 1.00586 81.9983 1.00586H82.2345C82.3525 1.00586 82.4706 1.0649 82.4706 1.24201V3.12964H84.5353C84.6534 3.12964 84.7715 3.18868 84.7715 3.36579V3.66098C84.7715 3.77906 84.7125 3.89714 84.5353 3.89714H82.4706V8.55797C82.4706 8.97124 82.5296 9.20739 82.7068 9.3845C82.8839 9.56162 83.1791 9.62066 83.5333 9.62066C83.8285 9.62066 84.0646 9.62066 84.2417 9.56162C84.3598 9.56162 84.4189 9.50258 84.4779 9.50258H84.596C84.7141 9.50258 84.7731 9.56162 84.7731 9.67969V9.91584C84.7731 10.093 84.7141 10.152 84.596 10.211C84.2402 10.3275 83.8269 10.3866 83.3546 10.3866ZM86.5411 10.3275C86.423 10.3275 86.3049 10.2685 86.3049 10.0914V3.30675C86.3049 3.18868 86.3639 3.0706 86.5411 3.0706H86.8362C87.0134 3.0706 87.0724 3.12964 87.0724 3.30675L87.1314 3.89714C87.6037 3.54291 88.076 3.30675 88.6058 3.12964C89.1371 2.95253 89.6094 2.83445 90.1392 2.83445C90.8477 2.83445 91.3774 3.01156 91.7316 3.36579C92.0859 3.72002 92.263 4.25137 92.263 5.01727V10.0323C92.263 10.1504 92.2039 10.2685 92.0268 10.2685H91.6726C91.5545 10.2685 91.4364 10.2094 91.4364 10.0323V5.3715C91.4364 4.78112 91.3184 4.30881 91.0822 4.01521C90.8461 3.72002 90.4328 3.60194 89.9621 3.60194C89.0175 3.60194 88.0744 3.89714 87.1889 4.48752V10.0323C87.1889 10.1504 87.1298 10.2685 86.9527 10.2685L86.5411 10.3275ZM97.5142 10.5046C96.3941 10.5046 95.5085 10.2094 94.9181 9.56002C94.3277 8.9106 94.0325 7.96758 94.0325 6.66874C94.0325 5.48957 94.3277 4.54496 94.9181 3.8365C95.5085 3.18708 96.3334 2.83285 97.3371 2.83285C98.2226 2.83285 98.8705 3.06901 99.3428 3.60035C99.8151 4.07266 100.051 4.83856 100.051 5.72413C100.051 6.1374 100.051 6.37355 99.9922 6.6097C99.9332 6.72778 99.8741 6.84586 99.7561 6.84586H94.9181C94.9181 7.84951 95.1543 8.61541 95.5675 9.08772C95.9808 9.56002 96.6876 9.79617 97.5732 9.79617C98.2817 9.79617 98.9295 9.6781 99.5199 9.44194C99.638 9.38291 99.7561 9.38291 99.7561 9.38291C99.8151 9.38291 99.8151 9.38291 99.8741 9.44194C99.9332 9.50098 99.9332 9.50098 99.9332 9.56002V9.73713C99.9332 9.91425 99.8741 9.97329 99.7561 10.0323C99.1082 10.3275 98.3407 10.5046 97.5142 10.5046ZM99.2853 6.19803V5.72573C99.2853 5.01727 99.1082 4.48752 98.754 4.13329C98.3998 3.77906 97.9275 3.60194 97.2796 3.60194C95.7462 3.60194 94.9787 4.48752 94.8607 6.13899H99.2853V6.19803ZM102.116 10.3275C101.998 10.3275 101.88 10.2685 101.88 10.0914V3.30675C101.88 3.18868 101.939 3.0706 102.116 3.0706H102.411C102.588 3.0706 102.647 3.12964 102.647 3.30675L102.706 4.13329C103.061 3.72002 103.415 3.42483 103.769 3.30675C104.123 3.12964 104.537 3.0706 104.948 3.0706H105.302C105.421 3.0706 105.539 3.12964 105.539 3.30675V3.66098C105.539 3.72002 105.539 3.72002 105.48 3.77906C105.48 3.8381 105.421 3.8381 105.361 3.8381H104.83C104.417 3.8381 104.004 3.89714 103.651 4.07425C103.297 4.25137 103.002 4.48752 102.647 4.84175V10.093C102.647 10.211 102.588 10.3291 102.411 10.3291C102.41 10.3275 102.116 10.3275 102.116 10.3275ZM60.6424 26.1976C60.5243 26.1976 60.4062 26.1386 60.4062 25.9615V19.2359C60.4062 19.1178 60.4653 18.9998 60.6424 18.9998H60.9376C61.1147 18.9998 61.1737 19.0588 61.1737 19.2359L61.2328 19.8263C61.7051 19.4721 62.1774 19.2359 62.7071 19.0588C63.2385 18.8817 63.7108 18.7636 64.2405 18.7636C64.949 18.7636 65.4787 18.9407 65.833 19.295C66.1872 19.6492 66.3643 20.1805 66.3643 20.9464V25.9615C66.3643 26.0796 66.3053 26.1976 66.1282 26.1976H65.7149C65.5968 26.1976 65.4787 26.1386 65.4787 25.9615V21.3007C65.4787 20.6512 65.3607 20.238 65.1245 19.9444C64.8884 19.6492 64.4751 19.5311 64.0044 19.5311C63.0598 19.5311 62.1168 19.8263 61.2312 20.4757V26.0205C61.2312 26.1386 61.1722 26.2567 60.995 26.2567C61.0541 26.1976 60.6424 26.1976 60.6424 26.1976ZM71.6139 26.4322C70.4938 26.4322 69.6082 26.137 69.0179 25.4876C68.4275 24.8382 68.1323 23.8951 68.1323 22.5963C68.1323 21.4171 68.4275 20.4725 69.0179 19.7641C69.6082 19.1146 70.4332 18.7604 71.4368 18.7604C72.3224 18.7604 72.9702 18.9966 73.4425 19.5279C73.9148 20.0002 74.151 20.7071 74.151 21.6517C74.151 22.065 74.151 22.3011 74.092 22.5373C74.0329 22.6553 73.9739 22.7734 73.8558 22.7734H69.0179C69.0179 23.7771 69.254 24.543 69.6673 25.0153C70.0805 25.4876 70.7874 25.7237 71.673 25.7237C72.3814 25.7237 73.0293 25.6057 73.6196 25.3695C73.7377 25.3105 73.8558 25.3105 73.8558 25.3105C73.9148 25.3105 73.9148 25.3105 73.9739 25.3695C74.0329 25.4285 74.0329 25.4285 74.0329 25.4876V25.7237C74.0329 25.9008 73.9739 25.9599 73.8558 26.0189C73.208 26.2551 72.4405 26.4322 71.6139 26.4322ZM73.3851 22.0666V21.5942C73.3851 20.8858 73.208 20.356 72.8537 20.0018C72.4995 19.6476 72.0272 19.4705 71.3794 19.4705C69.846 19.4705 69.0785 20.297 68.9604 22.0075L73.3851 22.0666ZM78.2214 26.3141C77.6311 26.3141 77.2178 26.196 76.9242 25.8418C76.629 25.5466 76.4519 25.1334 76.4519 24.5446V19.7066H75.3318C75.2137 19.7066 75.0956 19.6476 75.0956 19.4705V19.3524C75.0956 19.2934 75.0956 19.2343 75.1546 19.1753C75.2137 19.1162 75.2137 19.1162 75.3318 19.1162L76.5109 18.9982L76.629 17.1105C76.629 17.0515 76.688 16.9925 76.688 16.9334C76.7471 16.8744 76.7471 16.8744 76.8652 16.8744H77.1013C77.2194 16.8744 77.3375 16.9334 77.3375 17.1105V18.9982H79.4022C79.5203 18.9982 79.6384 19.0572 79.6384 19.2343V19.5295C79.6384 19.6476 79.5793 19.7657 79.4022 19.7657H77.3375V24.4855C77.3375 24.8988 77.3965 25.1349 77.5736 25.3121C77.7507 25.4892 78.0459 25.5482 78.4002 25.5482C78.6953 25.5482 78.9315 25.5482 79.1086 25.4892C79.2267 25.4892 79.2857 25.4301 79.3448 25.4301H79.4628C79.5809 25.4301 79.64 25.4892 79.64 25.6073V25.8434C79.64 26.0205 79.5809 26.0796 79.4628 26.1386C79.107 26.2567 78.6937 26.3141 78.2214 26.3141ZM82.8823 26.1976C82.7642 26.1976 82.6461 26.1386 82.5871 26.0205L80.3452 19.354C80.2862 19.2359 80.2862 19.1769 80.2862 19.1178C80.2862 18.9998 80.3452 18.9998 80.4633 18.9998H80.9356C81.0537 18.9998 81.1718 19.0588 81.1718 19.1769L83.1184 25.253L84.8289 19.1769C84.888 19.0588 84.947 18.9998 85.1241 18.9998H85.6555C85.7736 18.9998 85.8916 19.0588 85.9507 19.1769L87.6612 25.253L89.6669 19.1178C89.7259 18.9998 89.785 18.9407 89.903 18.9407H90.3163C90.4344 18.9407 90.4934 18.9998 90.4934 19.0588C90.4934 19.1178 90.4934 19.1769 90.4344 19.295L88.0744 25.9615C88.0154 26.0796 87.9564 26.1386 87.7793 26.1386H87.307C87.1889 26.1386 87.0708 26.0796 87.0118 25.9615L85.3012 19.8853L83.5907 25.9615C83.5317 26.0796 83.4727 26.1386 83.2955 26.1386L82.8823 26.1976ZM94.741 26.4322C93.6783 26.4322 92.8534 26.078 92.322 25.4285C91.7907 24.7791 91.4364 23.8361 91.4364 22.5963C91.4364 21.3565 91.7316 20.4725 92.322 19.7641C92.9124 19.0556 93.7373 18.7604 94.741 18.7604C95.7446 18.7604 96.6286 19.1146 97.16 19.7641C97.7503 20.4135 98.0455 21.3565 98.0455 22.5963C98.0455 23.8361 97.7503 24.7201 97.16 25.4285C96.6286 26.0796 95.8021 26.4322 94.741 26.4322ZM94.741 25.6663C96.3925 25.6663 97.219 24.6626 97.219 22.5979C97.219 20.5332 96.3925 19.5295 94.741 19.5295C93.0895 19.5295 92.263 20.5332 92.263 22.5979C92.263 24.6626 93.0895 25.6663 94.741 25.6663ZM100.169 26.1976C100.051 26.1976 99.9332 26.1386 99.9332 25.9615V19.2359C99.9332 19.1178 99.9922 18.9998 100.169 18.9998H100.465C100.642 18.9998 100.701 19.0588 100.701 19.2359L100.76 20.0624C101.114 19.6492 101.468 19.354 101.822 19.2359C102.177 19.0588 102.59 18.9998 103.002 18.9998H103.356C103.474 18.9998 103.592 19.0588 103.592 19.2359V19.5901C103.592 19.6492 103.592 19.6492 103.533 19.7082C103.533 19.7082 103.474 19.7673 103.415 19.7673H102.883C102.47 19.7673 102.057 19.8263 101.704 20.0034C101.35 20.1805 101.055 20.4167 100.701 20.7709V26.0221C100.701 26.1402 100.642 26.2583 100.465 26.2583C100.465 26.2551 100.169 26.1976 100.169 26.1976ZM105.065 26.1976C104.947 26.1976 104.829 26.1386 104.829 25.9615V15.8149C104.829 15.6968 104.888 15.5787 105.065 15.5787H105.478C105.596 15.5787 105.714 15.6378 105.714 15.8149V22.1862L109.135 19.1178C109.253 18.9998 109.371 18.9998 109.489 18.9998H110.021C110.139 18.9998 110.198 19.0588 110.198 19.1178C110.198 19.1769 110.139 19.2359 110.021 19.354L106.541 22.4224L110.316 25.9024C110.375 25.9615 110.434 26.0205 110.434 26.0796C110.434 26.1976 110.375 26.1976 110.257 26.1976H109.666C109.548 26.1976 109.43 26.1386 109.371 26.0796L105.714 22.7176V26.0205C105.714 26.1386 105.655 26.2567 105.478 26.2567L105.065 26.1976Z" fill="white"/>
</svg>
