<svg width="37px" height="41px" viewBox="0 0 37 41" fill="none" xmlns="http://www.w3.org/2000/svg" transform="rotate(0) scale(1, 1)">
<path d="M33.6591 18.728C33.4424 18.728 33.2291 18.6428 33.0698 18.4838L29.9808 15.3945H25.3256C24.8648 15.3945 24.4922 15.0213 24.4922 14.5611C24.4922 14.1012 24.8648 13.728 25.3256 13.728H30.3256C30.5472 13.728 30.759 13.8152 30.9149 13.9721L32.8256 15.8828V14.5611C32.8256 14.1012 33.1982 13.728 33.6591 13.728H34.4922C34.9524 13.728 35.3256 13.3538 35.3256 12.8945V2.89453C35.3256 2.43524 34.9524 2.0611 34.4922 2.0611H16.9922C16.5332 2.0611 16.1591 2.43524 16.1591 2.89453V12.8945C16.1591 13.3538 16.5332 13.728 16.9922 13.728H18.6591C19.119 13.728 19.4922 14.1012 19.4922 14.5611C19.4922 15.0213 19.119 15.3945 18.6591 15.3945H16.9922C15.614 15.3945 14.4922 14.273 14.4922 12.8945V2.89453C14.4922 1.51605 15.614 0.394531 16.9922 0.394531H34.4922C35.8707 0.394531 36.9922 1.51605 36.9922 2.89453V12.8945C36.9922 14.273 35.8707 15.3945 34.4922 15.3945V17.8945C34.4922 18.2311 34.2899 18.5354 33.9783 18.6645C33.8748 18.7069 33.7665 18.728 33.6591 18.728Z" fill="#cc5500"/>
<path d="M3.66156 22.0616C3.55383 22.0616 3.4455 22.0418 3.34235 21.9985C3.03137 21.87 2.82812 21.5651 2.82812 21.2285V18.7285C1.44965 18.7285 0.328125 17.6067 0.328125 16.2285V6.22852C0.328125 4.85004 1.44965 3.72852 2.82812 3.72852H11.9947C12.4549 3.72852 12.8281 4.10175 12.8281 4.56165C12.8281 5.02185 12.4549 5.39508 11.9947 5.39508H2.82812C2.36884 5.39508 1.99469 5.76923 1.99469 6.22852V16.2285C1.99469 16.6875 2.36884 17.0616 2.82812 17.0616H3.66156C4.12146 17.0616 4.49469 17.4352 4.49469 17.8951V19.2168L6.4057 17.3058C6.56134 17.1492 6.77405 17.0616 6.99469 17.0616H20.3281C20.788 17.0616 21.1616 16.6875 21.1616 16.2285V6.22852C21.1616 5.76923 20.788 5.39508 20.3281 5.39508H18.6616C18.2014 5.39508 17.8281 5.02185 17.8281 4.56165C17.8281 4.10175 18.2014 3.72852 18.6616 3.72852H20.3281C21.7066 3.72852 22.8281 4.85004 22.8281 6.22852V16.2285C22.8281 17.6067 21.7066 18.7285 20.3281 18.7285H7.33984L4.25055 21.8175C4.09155 21.9768 3.87823 22.0616 3.66156 22.0616Z" fill="#cc5500"/>
<path d="M7.83063 32.0605C5.53326 32.0605 3.66406 30.1913 3.66406 27.894V26.2274C3.66406 23.9297 5.53326 22.0605 7.83063 22.0605C10.128 22.0605 11.9972 23.9297 11.9972 26.2274V27.894C11.9972 30.1913 10.128 32.0605 7.83063 32.0605ZM7.83063 23.7274C6.45215 23.7274 5.33063 24.8489 5.33063 26.2274V27.894C5.33063 29.2725 6.45215 30.394 7.83063 30.394C9.20911 30.394 10.3306 29.2725 10.3306 27.894V26.2274C10.3306 24.8489 9.20911 23.7274 7.83063 23.7274Z" fill="#cc5500"/>
<path d="M10.3297 40.3945H5.3266C2.5141 40.3936 0.64978 38.562 0.572266 38.4838C0.41571 38.3279 0.328125 38.1161 0.328125 37.8945V35.007C0.328125 34.447 0.60553 33.9288 1.07153 33.6196L5.32813 30.7821V30.3945H6.99469V31.228C6.99469 31.5063 6.85553 31.7663 6.6239 31.9213L1.99469 35.007V37.5137C2.49487 37.9086 3.72321 38.7271 5.32721 38.728H10.3297C11.9489 38.7271 13.1657 37.9119 13.6616 37.517V35.007L9.03235 31.9213C8.80072 31.7663 8.66156 31.5063 8.66156 31.228V30.3945H10.3281V30.7821L14.5865 33.6202C15.0513 33.9303 15.3281 34.4488 15.3281 35.007V37.8945C15.3281 38.1161 15.2405 38.3279 15.084 38.4838C15.0065 38.562 13.1415 40.3936 10.3297 40.3945Z" fill="#cc5500"/>
<path d="M29.4947 32.0605C27.1973 32.0605 25.3281 30.1913 25.3281 27.894V26.2274C25.3281 23.9297 27.1973 22.0605 29.4947 22.0605C31.7924 22.0605 33.6616 23.9297 33.6616 26.2274V27.894C33.6616 30.1913 31.7924 32.0605 29.4947 32.0605ZM29.4947 23.7274C28.1165 23.7274 26.9947 24.8489 26.9947 26.2274V27.894C26.9947 29.2725 28.1165 30.394 29.4947 30.394C30.8732 30.394 31.9947 29.2725 31.9947 27.894V26.2274C31.9947 24.8489 30.8732 23.7274 29.4947 23.7274Z" fill="#cc5500"/>
<path d="M31.994 40.3945H26.9907C24.1782 40.3936 22.3148 38.562 22.2363 38.4838C22.0798 38.3279 21.9922 38.1161 21.9922 37.8945V35.007C21.9922 34.447 22.2705 33.9279 22.7365 33.6196L26.9922 30.7821V30.3945H28.6591V31.228C28.6591 31.5063 28.5199 31.7663 28.2883 31.9213L23.6591 35.007V37.5137C24.1589 37.9095 25.3873 38.7271 26.9907 38.728H31.994C33.613 38.7271 34.8297 37.9119 35.3256 37.517V35.007L30.6964 31.9213C30.4648 31.7663 30.3256 31.5063 30.3256 31.228V30.3945H31.9922V30.7821L36.2497 33.6202C36.7148 33.9303 36.9922 34.4488 36.9922 35.007V37.8945C36.9922 38.1161 36.9049 38.3279 36.748 38.4838C36.6699 38.562 34.8065 40.3936 31.994 40.3945Z" fill="#cc5500"/>
<path d="M17.8281 22.0605H19.4947V23.7274H17.8281V22.0605Z" fill="#cc5500"/>
<path d="M14.4922 22.0605H16.1591V23.7274H14.4922V22.0605Z" fill="#cc5500"/>
<path d="M21.1641 22.0605H22.8306V23.7274H21.1641V22.0605Z" fill="#cc5500"/>
</svg>