<svg width="96" height="52" viewBox="0 0 96 52" fill="none" xmlns="http://www.w3.org/2000/svg">
<path fill-rule="evenodd" clip-rule="evenodd" d="M41.8662 32.742H45.2792V27.4084L48.9323 27.398L48.9428 32.7315L52.3558 32.742L52.3663 19.3925H48.9532L48.9428 24.4233H45.2897L45.2792 19.3925H41.8766L41.8662 32.742Z" fill="white"/>
<path fill-rule="evenodd" clip-rule="evenodd" d="M61.082 32.7523H64.5786L64.589 27.9406C65.7058 27.7006 68.263 28.4729 70.1209 26.9908C71.3108 26.0306 72.0309 23.9431 71.3943 22.127C71.1124 21.3337 70.5593 20.6866 70.0165 20.2586C68.597 19.1314 66.2486 19.3715 64.3803 19.3715C63.2844 19.3715 62.1884 19.3819 61.0925 19.3715L61.082 32.7523ZM64.5055 25.1956C65.1318 25.2269 66.4156 25.2373 66.9583 25.1329C68.4926 24.8198 68.5866 22.6071 67.0105 22.2209C66.5826 22.1165 65.0065 22.0852 64.516 22.1478L64.5055 25.1956Z" fill="white"/>
<path fill-rule="evenodd" clip-rule="evenodd" d="M83.3037 32.7314H86.3097C86.4662 32.5122 86.9986 30.3934 87.1551 30.0803L91.0796 30.0698L91.8728 32.7314C92.9583 32.7731 94.3778 32.7418 95.5155 32.7418C95.4842 32.4183 93.595 26.4794 93.4593 26.041L91.3823 19.361H87.5413L85.4121 26.041C85.2764 26.4272 83.3559 32.4078 83.3037 32.7314ZM87.9379 27.2517L90.2863 27.2726L89.1069 23.2437C89.0025 23.4629 89.1487 23.1394 89.086 23.2959L87.9379 27.2517Z" fill="white"/>
<path fill-rule="evenodd" clip-rule="evenodd" d="M70.5488 32.7314L73.5757 32.7418L74.3898 30.0698H78.3038C78.5022 30.5187 78.9927 32.5226 79.1388 32.7314L82.7606 32.7418C82.7189 32.46 81.8526 29.7463 81.7482 29.4123C81.028 27.1578 80.3913 24.9659 79.6711 22.7114C79.525 22.2626 78.7213 19.5385 78.6065 19.3715L74.7969 19.361C74.7655 19.4028 74.7655 19.3923 74.7447 19.4445L73.7114 22.6801C73.0329 24.8929 72.271 27.1369 71.603 29.3497C71.4151 29.955 70.6114 32.3452 70.5488 32.7314ZM75.2039 27.2726H77.5106C77.5002 27.0012 76.686 24.2353 76.5295 23.7134C76.5086 23.6299 76.4877 23.5569 76.4669 23.4629C76.4564 23.4212 76.4564 23.3899 76.4355 23.3481L76.4042 23.2959C76.3625 23.2333 76.3938 23.2646 76.3416 23.2229L75.4753 26.2497C75.4022 26.5002 75.2248 27.0012 75.2039 27.2726Z" fill="white"/>
<path fill-rule="evenodd" clip-rule="evenodd" d="M32.337 26.2497C32.5353 26.4376 33.0363 26.5211 33.2972 26.6255C35.3534 27.5022 34.6437 28.0241 35.8544 27.1369C36.418 26.7299 36.7729 26.3437 37.1278 25.6966C37.514 24.9972 37.4409 24.2144 37.3052 23.3794C37.2008 22.6801 36.8147 22.0434 36.4285 21.5529C34.1844 18.6095 28.7883 19.4445 25.751 18.693C25.0517 18.5156 24.4045 18.2025 23.8618 17.8685C23.1938 17.4614 22.8702 17.2005 22.7972 16.2193C22.7345 15.3948 22.985 14.6224 23.3817 14.0901C23.8513 13.443 24.2062 13.0985 25.1665 13.3177C26.4085 13.5995 26.0536 13.9127 27.3896 13.6622C27.9011 13.5682 29.1223 13.182 29.0492 12.6393C28.9866 12.1801 28.0785 11.5851 27.6401 11.3764C26.4294 10.7919 24.3732 11.3033 23.1312 11.7312C22.0039 12.1174 20.6679 13.182 20.3131 14.3406C20.1147 14.9877 19.9895 16.0419 20.1252 16.7934C20.2296 17.3883 20.5949 18.2442 20.8871 18.7348C21.2524 19.3193 21.7117 19.6741 22.3066 20.0395C24.916 21.6573 27.9741 21.4694 31.4602 21.7199C32.9319 21.8243 34.5393 22.4714 34.9672 23.6195C35.3221 24.5902 34.8524 25.0599 34.2053 25.4147C33.5999 25.7383 32.9528 25.9679 32.337 26.2497ZM27.1496 11.7104C27.3375 11.7104 27.4836 11.7939 27.4836 11.8982C27.4836 12.0131 27.3375 12.0966 27.1496 12.0966C26.9721 12.0966 26.826 12.0131 26.826 11.8982C26.826 11.7939 26.9721 11.7104 27.1496 11.7104Z" fill="white"/>
<path fill-rule="evenodd" clip-rule="evenodd" d="M28.5278 11.4912C28.8827 11.3346 29.1228 11.0528 29.3419 10.771C29.8638 10.0822 29.3211 10.0717 28.1312 9.36197C27.7972 9.17409 27.505 8.97578 27.1918 8.77747C26.5656 8.38085 26.0437 7.86941 25.6888 7.23273C24.6138 5.31224 26.0124 3.86143 24.0188 2.79681C21.9835 1.70088 18.9254 3.28737 16.9944 4.14324C16.2847 4.4668 15.6167 4.81124 14.9696 5.16611C13.9571 5.72973 14.1659 6.25161 15.1679 6.68998C15.7837 6.96135 17.2032 6.99267 17.9234 6.9196C19.0506 6.81523 19.5307 6.96135 20.4388 7.36841C21.4617 7.8381 23.4135 8.90272 24.4155 9.49765C25.1148 9.91515 25.6784 10.1865 26.4612 10.4997C26.9518 10.698 27.6093 10.9067 28.0686 11.1781C28.2565 11.2929 28.3504 11.4181 28.5278 11.4912Z" fill="white"/>
<path fill-rule="evenodd" clip-rule="evenodd" d="M36.7001 2.43149C35.9173 2.5463 35.124 2.77592 34.6126 3.3813C33.7358 4.42504 34.9153 5.99066 33.1409 8.00509C32.4416 8.80877 31.2935 9.30977 30.4063 9.85252C30.041 10.0717 29.6548 10.1865 30.0097 10.6875C30.8029 11.8147 30.9803 11.4286 31.2622 11.2407C31.8362 10.8441 33.1618 10.4474 33.9133 10.0926C34.5917 9.76902 35.2075 9.36196 35.8651 8.98621C36.6896 8.50608 39.0902 7.22228 39.9461 6.99265C40.969 6.73172 41.5222 7.0344 42.7642 6.93003C43.213 6.88828 43.7245 6.87784 44.1107 6.74216C44.3298 6.65866 44.9352 6.31422 45.0396 6.13678C45.4049 5.5001 44.1002 4.96779 43.5262 4.68598C42.8477 4.35198 42.1484 4.01798 41.4387 3.71529C40.3323 3.24561 38.1613 2.2123 36.7001 2.43149Z" fill="white"/>
<path fill-rule="evenodd" clip-rule="evenodd" d="M54.8506 32.7314L58.2949 32.7418L58.3054 19.3715L54.861 19.361L54.8506 32.7314Z" fill="white"/>
<path fill-rule="evenodd" clip-rule="evenodd" d="M31.9403 32.5853C32.1595 32.7314 32.4517 32.6479 33.0153 33.055C33.2763 33.2324 33.6729 33.5768 33.9443 33.7125L34.9149 33.0237C35.3011 32.7314 35.4368 32.5018 35.5829 32.0112C36.1153 30.2786 35.322 28.3268 33.8086 27.4187C32.0864 26.3854 30.0302 26.6046 28.0367 26.4272C27.0973 26.3437 26.1788 25.9784 25.4586 25.6235C23.8199 24.7885 24.1017 23.0768 25.897 22.2418L26.5128 21.9704C25.9701 21.8765 25.4064 21.7512 24.895 21.6051C24.6445 21.532 23.5068 21.125 23.3711 21.125C22.9223 21.5633 22.2856 22.4923 22.1604 23.202C21.9412 24.371 21.8994 25.0599 22.4631 25.9784C22.9119 26.7194 23.4546 27.0639 24.1644 27.5544C24.4984 27.7841 26.0953 28.2433 26.6694 28.3581C27.6192 28.5564 28.6942 28.6399 29.7067 28.6295C31.3975 28.5982 32.4935 28.6712 33.4433 29.8402C33.9234 30.4247 33.9965 31.5833 33.1301 32.1156C32.7544 32.3348 32.3056 32.4078 31.9403 32.5853Z" fill="white"/>
<path fill-rule="evenodd" clip-rule="evenodd" d="M51.1143 35.059C50.1227 35.226 49.5173 35.6852 49.0894 36.4367C48.6197 37.2508 48.484 38.2006 48.5466 39.2966C48.6719 41.2484 49.9139 42.887 52.0745 42.5635C53.9741 42.2712 54.7674 40.3403 54.6108 38.305C54.4647 36.2906 53.1182 34.725 51.1143 35.059ZM51.1143 35.6748C49.58 35.9774 49.0581 37.6474 49.2042 39.3383C49.3399 40.8622 50.2688 42.313 52.0432 41.9581C54.9552 41.3736 54.6108 34.9755 51.1143 35.6748Z" fill="white"/>
<path fill-rule="evenodd" clip-rule="evenodd" d="M0.0332031 8.51647C0.0853901 8.93396 0.930824 9.65415 1.44225 9.88377C3.74893 10.9066 8.81109 10.2073 11.243 9.49759C12.2241 9.20534 16.9001 7.72322 17.495 7.29528C16.7018 7.3266 16.0338 7.50403 15.0422 7.19091C13.9254 6.83604 13.9254 6.37679 13.6123 5.9071C13.1009 5.89666 11.2326 6.59597 10.4289 6.77341C8.70672 7.1596 5.34586 7.84847 3.64456 8.07809C2.44425 8.23465 1.25438 8.37034 0.0332031 8.51647Z" fill="white"/>
<path fill-rule="evenodd" clip-rule="evenodd" d="M43.0566 7.37885L41.9189 7.29535C42.2111 7.49366 42.9417 7.7546 43.2757 7.86941C44.8622 8.45391 46.0834 8.84009 47.7117 9.35153C49.6321 9.96734 52.659 10.4057 54.7256 10.4057C55.7067 10.4057 56.7609 10.2909 57.6064 10.0091C58.0447 9.8734 58.3683 9.7064 58.671 9.43503C58.838 9.27847 59.3598 8.79834 59.3703 8.52697C58.17 8.34953 56.9697 8.24516 55.7694 8.07816C53.9428 7.82766 50.8116 7.19098 48.985 6.77348C48.4527 6.65867 47.9204 6.49167 47.4194 6.31423C46.981 6.15767 46.2609 5.93848 45.8016 5.89673C45.7285 6.00111 45.6972 6.09504 45.6346 6.23073C45.3632 6.80479 44.6326 7.1701 44.0481 7.27448C43.8602 7.30579 43.2131 7.39972 43.0566 7.37885Z" fill="white"/>
<path fill-rule="evenodd" clip-rule="evenodd" d="M32.5771 18.9227L34.675 19.6846C35.0194 19.8307 35.2908 19.956 35.6352 20.1334C36.3241 20.4987 36.1258 20.5822 36.585 20.3422C38.0985 19.5593 38.6517 18.9018 39.1944 17.2422C39.4449 16.4803 39.3718 15.4679 39.2048 14.6851C39.0274 13.7979 38.6204 13.3595 38.1402 12.9003C36.8042 11.6164 35.8649 11.5851 34.0383 11.2303C33.1198 11.0528 32.3996 11.0424 31.6481 11.4494C31.2933 11.6373 30.0303 12.3993 30.4791 12.9629C30.8131 13.3699 31.9195 13.6935 32.5666 13.7457C33.2659 13.7979 33.2138 13.6204 33.7043 13.4639C34.007 13.3595 34.5915 13.2134 34.9359 13.2447C35.844 13.3178 37.1278 15.1965 36.4494 17.0439C36.2511 17.5762 35.3117 18.0459 34.8211 18.2755C34.4976 18.4217 34.1427 18.5678 33.7565 18.6617C33.5478 18.7243 32.671 18.8496 32.5771 18.9227ZM32.1074 11.7104C32.2953 11.7104 32.4414 11.7939 32.4414 11.8983C32.4414 12.0131 32.2953 12.0966 32.1074 12.0966C31.9299 12.0966 31.7838 12.0131 31.7838 11.8983C31.7838 11.7939 31.9299 11.7104 32.1074 11.7104Z" fill="white"/>
<path fill-rule="evenodd" clip-rule="evenodd" d="M28.455 34.4432C29.6031 34.4432 30.5007 34.3179 31.4505 34.6936C32.1394 34.965 32.369 35.2468 32.6404 35.9461C32.9222 36.6663 32.7552 37.2717 32.2855 37.6788C31.9098 37.9919 31.1792 38.3885 30.626 38.472C30.9495 38.5764 31.3148 38.6599 31.6488 38.7747C31.9933 38.8895 32.2125 39.14 32.4943 39.307C32.6613 39.2548 33.0266 38.9417 33.204 38.7956C33.9764 38.1484 34.3939 37.3239 34.3939 36.2488C34.3939 35.6121 34.0912 35.1216 33.8303 34.6832C33.5067 34.1196 33.4441 33.9526 32.7761 33.556C31.628 32.8775 30.8452 32.7418 29.2482 32.7523C28.1523 32.7523 26.451 32.4496 25.9187 31.7607C25.5325 31.2597 25.6995 29.9655 26.3884 29.4123C26.5971 29.2557 26.8685 29.1722 27.0459 28.9635C26.9415 28.8904 26.8267 28.88 26.691 28.8487C25.3029 28.546 24.8227 27.7841 24.3531 28.5564C23.8834 29.3392 23.4972 30.4874 23.7164 31.6355C24.0504 33.5351 26.618 34.4432 28.455 34.4432Z" fill="white"/>
<path fill-rule="evenodd" clip-rule="evenodd" d="M38.4746 8.27649C38.9025 8.81924 41.0422 9.85254 41.752 10.1552C44.497 11.3346 47.1377 12.1383 50.2689 12.0235C51.344 11.9818 52.6382 11.8356 53.6089 11.4599C53.7759 11.3973 53.9012 11.3555 54.0682 11.272C54.2143 11.2094 54.3917 11.1468 54.4335 10.9902C54.2352 10.8023 53.6089 10.8858 53.2853 10.8858C51.8241 10.8858 49.1834 10.364 47.8161 9.93604C46.5741 9.53942 45.2276 9.03842 44.0065 8.58961C43.422 8.38086 41.9607 7.73374 41.3345 7.39974C41.084 7.26406 40.4682 7.29537 40.1446 7.34756C39.8002 7.39974 39.4453 7.55631 39.2052 7.70243C39.0487 7.78593 38.9443 7.84855 38.8086 7.95293C38.6729 8.04687 38.5372 8.15124 38.4746 8.27649Z" fill="white"/>
<path fill-rule="evenodd" clip-rule="evenodd" d="M4.96973 10.9902C5.05323 11.3242 6.52491 11.7104 6.95285 11.7834C10.178 12.3575 13.017 11.9296 16.0751 10.7814C17.0145 10.437 17.8495 10.103 18.6741 9.68548C19.0811 9.47674 20.8242 8.58955 20.9286 8.24512C20.5632 7.85893 19.9057 7.45187 19.2794 7.3475C18.2044 7.17006 18.0583 7.44143 17.2337 7.81718C16.6075 8.08855 16.0647 8.34949 15.4385 8.57911C13.1213 9.41411 12.0358 9.8838 9.56224 10.4474C8.84203 10.6144 8.11141 10.6979 7.35991 10.8023C6.92154 10.8649 6.59798 10.8858 6.13873 10.8858C5.8256 10.8858 5.15761 10.8232 4.96973 10.9902Z" fill="white"/>
<path fill-rule="evenodd" clip-rule="evenodd" d="M11.4932 12.441C11.5872 12.7228 12.5474 12.9733 12.9127 13.0568C14.3426 13.4117 16.3258 13.3386 17.6826 12.8898C19.2378 12.3679 21.5862 11.2407 23.0788 10.4579C23.2875 10.3431 23.872 10.0404 24.0703 9.88385C23.9242 9.46635 22.4421 8.78792 21.9933 8.63136C21.5549 8.48523 21.5549 8.45392 21.2209 8.75661C20.5634 9.3411 19.1856 9.94648 18.3611 10.3535C16.8372 11.105 15.1254 11.6999 13.372 12.0757C13.1215 12.1279 11.5767 12.3784 11.4932 12.441Z" fill="white"/>
<path fill-rule="evenodd" clip-rule="evenodd" d="M35.333 9.9047C35.8027 10.1239 36.7108 10.6666 37.3683 10.9902C38.84 11.7104 41.4076 12.9942 43.015 13.1716C44.2988 13.3177 45.1756 13.3386 46.4489 13.0672C46.7934 13.0046 47.8371 12.7124 47.9206 12.441C47.8162 12.3575 46.3759 12.1592 46.0836 12.0861C44.1423 11.6269 42.8584 11.2407 41.0841 10.3639C40.1134 9.89427 38.9027 9.37239 38.2138 8.77746C37.9111 8.51652 37.9007 8.44346 37.4832 8.61046C36.7525 8.89227 36.6377 8.91315 35.9593 9.35152C35.8654 9.41414 35.7401 9.49764 35.6253 9.58114C35.4374 9.7377 35.3957 9.7377 35.333 9.9047Z" fill="white"/>
<path fill-rule="evenodd" clip-rule="evenodd" d="M30.2186 48.0014C30.229 48.0014 30.2395 48.0014 30.2499 48.0118C30.2604 48.0327 30.2708 48.0223 30.2812 48.0327C30.4587 48.0849 30.7196 48.0536 30.8866 48.0014C31.9303 47.6361 32.2748 45.2563 32.4522 44.484C32.6505 43.6177 33.1515 41.5719 32.9637 40.6952C32.8593 40.215 32.7236 40.0376 32.4731 39.7349C31.5128 38.5451 29.5715 38.8791 28.1207 38.2841C27.5779 38.0545 26.8369 37.5744 26.7116 36.8124C26.5342 35.7374 27.4422 35.0172 27.5779 34.7563C27.2022 34.6519 26.6699 34.5475 26.3463 34.4118C25.7723 34.1926 25.6888 34.1822 25.4591 34.7876C25.0938 35.7374 24.8642 36.2071 25.2086 37.3447C25.6366 38.7747 27.3066 39.7036 29.0183 39.8497C31.8155 40.0794 32.0765 40.2985 31.7425 43.2106C31.6277 44.2022 31.4815 46.3418 31.064 47.2186C30.7718 47.8135 30.4169 47.7196 30.2186 48.0014Z" fill="white"/>
<path fill-rule="evenodd" clip-rule="evenodd" d="M29.2685 0.782375C27.9429 1.012 26.8679 2.14968 27.0975 3.68399C27.2958 4.9678 28.4752 6.07417 29.9887 5.85498C31.3351 5.65667 32.3997 4.44592 32.1805 2.94293C32.0031 1.64868 30.7297 0.521439 29.2685 0.782375Z" fill="white"/>
<path fill-rule="evenodd" clip-rule="evenodd" d="M63.9941 42.3861L64.6203 42.3965L64.6308 39.2861C65.4971 39.1713 66.593 39.4531 67.5846 39.0356C68.4196 38.6808 68.7745 37.9814 68.6805 36.9377C68.597 35.9879 68.0334 35.4451 67.1358 35.2781C66.4886 35.1633 64.7456 35.1946 64.015 35.226L63.9941 42.3861ZM64.6308 38.6599C65.1213 38.7225 66.5095 38.6912 66.9583 38.5973C67.6785 38.4303 68.0334 38.0128 68.0438 37.2404C68.0543 36.4576 67.7098 35.9879 66.9896 35.8522C66.6556 35.7896 64.9752 35.7478 64.6308 35.8105V38.6599Z" fill="white"/>
<path fill-rule="evenodd" clip-rule="evenodd" d="M56.1348 42.3965L56.7819 42.3861L56.7715 36.4158C56.8445 36.4785 56.7819 36.395 56.8445 36.4889C56.855 36.5098 56.8759 36.5515 56.8863 36.5724C56.9072 36.6246 56.9385 36.7185 56.9489 36.7707C57.0011 36.9064 57.0324 37.0108 57.0742 37.136L58.8798 42.3861C59.0468 42.3965 59.266 42.4069 59.4017 42.3652L61.5205 36.3115L61.5414 42.3965H62.1676V35.226H61.2491L59.1408 41.3006C58.9842 41.0501 58.7233 40.1629 58.598 39.8184L57.5334 36.7603C57.4186 36.4367 57.1159 35.4138 56.9802 35.226H56.1557L56.1348 42.3965Z" fill="white"/>
<path fill-rule="evenodd" clip-rule="evenodd" d="M77.1865 42.3861L77.844 42.3965L78.6477 40.2151C79.2426 40.1733 80.9648 40.1942 81.7685 40.2151C81.9772 40.4969 82.353 41.9894 82.5722 42.3861L83.2402 42.3965L80.5995 35.226H79.8376L77.1865 42.3861ZM78.8982 39.5993H81.5493L80.2238 35.9775C80.1194 36.0818 78.9191 39.3905 78.8982 39.5993Z" fill="white"/>
<path fill-rule="evenodd" clip-rule="evenodd" d="M84.4512 42.3861L85.0879 42.3965C85.0879 41.9581 85.0462 36.6976 85.1088 36.3845L88.6575 42.3861L89.3986 42.3965L89.409 35.226H88.7828L88.7723 41.1753C88.5531 40.9666 86.0168 36.5828 85.662 35.9879C85.5054 35.7374 85.3593 35.4347 85.2027 35.2364L84.4617 35.226L84.4512 42.3861Z" fill="white"/>
<path fill-rule="evenodd" clip-rule="evenodd" d="M47.4193 40.0481L46.8035 40.0585C46.6574 41.4675 45.5927 42.2712 44.0897 41.9372C42.879 41.6554 42.3258 40.3821 42.2945 38.9939C42.2528 37.5013 42.6703 36.1966 43.8288 35.7896C44.883 35.4138 46.2294 35.7583 46.6156 36.8438C46.6678 36.9794 46.6991 37.1986 46.7617 37.3134L47.3775 37.3239C47.2732 35.3408 45.2483 34.7354 43.7662 35.1633C42.2319 35.6121 41.5743 37.136 41.6161 38.9939C41.7204 42.9705 45.1022 43.0854 46.4277 42.0938C46.9079 41.7285 47.461 40.9561 47.4193 40.0481Z" fill="white"/>
<path fill-rule="evenodd" clip-rule="evenodd" d="M28.8094 18.5678C29.0077 18.6304 30.1975 18.6095 30.4689 18.5887C30.4794 18.1607 30.5733 14.612 30.5315 14.3615C30.4689 14.0379 30.3124 13.5578 30.2184 13.2238L29.0703 13.2134C28.6632 14.4241 28.7467 14.4867 28.7572 15.7601C28.7676 16.689 28.7989 17.6284 28.8094 18.5678Z" fill="white"/>
<path fill-rule="evenodd" clip-rule="evenodd" d="M26.2939 41.0502C26.2939 42.4383 26.7218 43.9935 27.0245 45.3504C27.1915 46.1019 27.5882 47.8345 28.4962 48.0224C28.8302 48.0954 28.9555 48.0537 29.0494 48.0119C29.0598 48.0119 29.0703 48.0015 29.0807 48.0015C28.8302 47.6675 28.3501 47.9493 27.9952 46.5507C27.8073 45.7888 27.4733 42.908 27.4316 42.0835C27.4212 41.6764 27.4316 41.3007 27.536 40.9458C27.6717 40.4135 27.9743 40.3508 28.0892 40.2152C27.9743 40.0795 27.5255 39.9647 27.1707 39.735C27.035 39.6515 26.9723 39.5785 26.8367 39.7037C26.7427 39.7872 26.5131 40.1212 26.4609 40.2569C26.367 40.5178 26.2939 40.7266 26.2939 41.0502Z" fill="white"/>
<path fill-rule="evenodd" clip-rule="evenodd" d="M29.6648 51.4771C29.7274 51.3414 29.8109 51.07 29.8422 50.9239C29.884 50.7673 30.4163 49.9323 29.9884 49.0973C29.8318 48.7842 29.8944 48.0849 29.9153 47.6987C29.9675 46.3627 29.9675 44.6823 29.9988 43.3045C30.0092 42.3547 30.0823 41.3006 30.0406 40.3507H29.2369C29.1951 41.3006 29.2786 42.3652 29.2891 43.3045L29.383 48.4189C29.383 48.7529 29.4247 48.8468 29.2995 49.1078C28.882 49.9845 29.3934 50.7256 29.4456 50.9343C29.4769 51.0596 29.5396 51.4144 29.6648 51.4771Z" fill="white"/>
<path fill-rule="evenodd" clip-rule="evenodd" d="M92.7279 35.8105V42.3756L93.3646 42.3965V35.8C93.7403 35.8 95.3372 35.8522 95.5564 35.7687V35.2051L90.5778 35.1946C90.4943 36.1862 90.5569 35.6852 92.7279 35.8105Z" fill="white"/>
<path fill-rule="evenodd" clip-rule="evenodd" d="M70.2354 42.3756C70.4337 42.4174 74.2851 42.4174 74.473 42.3756V41.8016L70.8721 41.7911V35.226H70.2458L70.2354 42.3756Z" fill="white"/>
<path fill-rule="evenodd" clip-rule="evenodd" d="M28.9553 26.0097L30.3121 26.0201L30.4061 21.9913L28.8926 21.9808L28.9553 26.0097Z" fill="white"/>
<path fill-rule="evenodd" clip-rule="evenodd" d="M29.1433 7.0135L29.0181 9.48718H30.2601C30.2706 9.12187 30.2184 8.63131 30.1975 8.25556C30.1766 7.96331 30.1036 7.264 30.1453 7.00306C30.6046 6.99263 31.0012 7.08656 30.9177 6.49163C30.8655 6.07413 30.2184 6.19938 29.7487 6.19938C28.8511 6.19938 28.2666 6.05326 28.3605 6.72125C28.4231 7.07613 28.8198 7.00306 29.1433 7.0135Z" fill="white"/>
<path fill-rule="evenodd" clip-rule="evenodd" d="M75.5693 42.3756L76.206 42.3965V35.226H75.5798L75.5693 42.3756Z" fill="white"/>
<path fill-rule="evenodd" clip-rule="evenodd" d="M30.197 32.3452L30.2701 28.9426H29.0176C29.0071 29.1618 29.0385 32.2513 29.1011 32.3139C29.1637 32.387 30.0196 32.3557 30.197 32.3452Z" fill="white"/>
<path fill-rule="evenodd" clip-rule="evenodd" d="M30.1032 38.2424L30.1554 34.7354L29.1429 34.725C29.0699 35.132 29.1534 36.4471 29.1638 36.9273C29.1951 38.4407 29.0594 38.2632 29.55 38.2632C29.7379 38.2528 29.9258 38.2737 30.1032 38.2424Z" fill="white"/>
</svg>
