<svg width="23px" height="39px" viewBox="0 0 23 39" fill="none" xmlns="http://www.w3.org/2000/svg" transform="rotate(0) scale(1, 1)">
<path d="M20.1786 38.0703C20.7185 38.0703 21.2363 37.8558 21.618 37.4741C21.9998 37.0923 22.2143 36.5745 22.2143 36.0346V2.10603C22.2143 1.56612 21.9998 1.04833 21.618 0.666559C21.2363 0.284789 20.7185 0.0703125 20.1786 0.0703125H16.7857V0.748884C16.7857 1.28879 16.5712 1.80658 16.1895 2.18835C15.8077 2.57012 15.2899 2.7846 14.75 2.7846H7.96429C7.42438 2.7846 6.90659 2.57012 6.52482 2.18835C6.14305 1.80658 5.92857 1.28879 5.92857 0.748884V0.0703125H2.53571C1.99581 0.0703125 1.47802 0.284789 1.09625 0.666559C0.714476 1.04833 0.5 1.56612 0.5 2.10603V36.0346C0.5 36.5745 0.714476 37.0923 1.09625 37.4741C1.47802 37.8558 1.99581 38.0703 2.53571 38.0703H20.1786ZM7.96429 30.606C8.32422 30.606 8.66942 30.463 8.92393 30.2085C9.17844 29.954 9.32143 29.6088 9.32143 29.2489V24.4989C9.32143 24.3189 9.39292 24.1463 9.52018 24.0191C9.64743 23.8918 9.82003 23.8203 10 23.8203C10.18 23.8203 10.3526 23.8918 10.4798 24.0191C10.6071 24.1463 10.6786 24.3189 10.6786 24.4989V29.2489C10.6786 29.9688 10.3926 30.6591 9.88357 31.1682C9.37455 31.6772 8.68416 31.9632 7.96429 31.9632C7.24441 31.9632 6.55402 31.6772 6.045 31.1682C5.53597 30.6591 5.25 29.9688 5.25 29.2489V24.4989C5.25 24.3189 5.32149 24.1463 5.44875 24.0191C5.57601 23.8918 5.7486 23.8203 5.92857 23.8203C6.10854 23.8203 6.28114 23.8918 6.40839 24.0191C6.53565 24.1463 6.60714 24.3189 6.60714 24.4989V29.2489C6.60714 29.6088 6.75013 29.954 7.00464 30.2085C7.25915 30.463 7.60435 30.606 7.96429 30.606ZM16.1071 36.7132H6.60714C6.42717 36.7132 6.25458 36.6417 6.12732 36.5144C6.00006 36.3872 5.92857 36.2146 5.92857 36.0346C5.92857 35.8546 6.00006 35.682 6.12732 35.5548C6.25458 35.4275 6.42717 35.356 6.60714 35.356H16.1071C16.2871 35.356 16.4597 35.4275 16.587 35.5548C16.7142 35.682 16.7857 35.8546 16.7857 36.0346C16.7857 36.2146 16.7142 36.3872 16.587 36.5144C16.4597 36.6417 16.2871 36.7132 16.1071 36.7132ZM16.7857 30.606C16.9657 30.606 17.1383 30.6775 17.2655 30.8048C17.3928 30.932 17.4643 31.1046 17.4643 31.2846C17.4643 31.4646 17.3928 31.6372 17.2655 31.7644C17.1383 31.8917 16.9657 31.9632 16.7857 31.9632H12.7143C12.5343 31.9632 12.3617 31.8917 12.2345 31.7644C12.1072 31.6372 12.0357 31.4646 12.0357 31.2846C12.0357 31.1046 12.1072 30.932 12.2345 30.8048C12.3617 30.6775 12.5343 30.606 12.7143 30.606H14.0714V25.1775H12.7143C12.5343 25.1775 12.3617 25.106 12.2345 24.9787C12.1072 24.8514 12.0357 24.6789 12.0357 24.4989C12.0357 24.3189 12.1072 24.1463 12.2345 24.0191C12.3617 23.8918 12.5343 23.8203 12.7143 23.8203H16.7857C16.9657 23.8203 17.1383 23.8918 17.2655 24.0191C17.3928 24.1463 17.4643 24.3189 17.4643 24.4989C17.4643 24.6789 17.3928 24.8514 17.2655 24.9787C17.1383 25.106 16.9657 25.1775 16.7857 25.1775H15.4286V30.606H16.7857ZM12.1327 6.52692C12.0439 6.37285 12.0191 6.19006 12.0637 6.01789C12.1083 5.84572 12.2186 5.69793 12.3711 5.60633C12.5235 5.51472 12.7058 5.48662 12.8788 5.52808C13.0517 5.56953 13.2015 5.67723 13.2958 5.82799L14.75 8.25117L16.2042 5.82799C16.2985 5.67723 16.4483 5.56953 16.6212 5.52808C16.7942 5.48662 16.9765 5.51472 17.1289 5.60633C17.2814 5.69793 17.3917 5.84572 17.4363 6.01789C17.4809 6.19006 17.4561 6.37285 17.3672 6.52692L15.5412 9.57031L17.3672 12.6137C17.4151 12.6901 17.4472 12.7753 17.4617 12.8643C17.4763 12.9532 17.4729 13.0442 17.4519 13.1318C17.4309 13.2195 17.3926 13.3021 17.3393 13.3748C17.286 13.4475 17.2188 13.5089 17.1415 13.5553C17.0643 13.6017 16.9785 13.6323 16.8893 13.6452C16.8001 13.6582 16.7092 13.6532 16.622 13.6306C16.5347 13.608 16.4528 13.5682 16.3811 13.5137C16.3093 13.4591 16.2492 13.3907 16.2042 13.3126L14.75 10.8895L13.2958 13.3126C13.2508 13.3907 13.1907 13.4591 13.1189 13.5137C13.0472 13.5682 12.9653 13.608 12.878 13.6306C12.7908 13.6532 12.6999 13.6582 12.6107 13.6452C12.5215 13.6323 12.4357 13.6017 12.3585 13.5553C12.2812 13.5089 12.214 13.4475 12.1607 13.3748C12.1074 13.3021 12.0691 13.2195 12.0481 13.1318C12.0271 13.0442 12.0237 12.9532 12.0383 12.8643C12.0528 12.7753 12.0849 12.6901 12.1327 12.6137L13.9588 9.57031L12.1327 6.52692ZM5.25 6.17746C5.25 5.99749 5.32149 5.82489 5.44875 5.69763C5.57601 5.57038 5.7486 5.49888 5.92857 5.49888C6.10854 5.49888 6.28114 5.57038 6.40839 5.69763C6.53565 5.82489 6.60714 5.99749 6.60714 6.17746V10.9275C6.60714 11.2874 6.75013 11.6326 7.00464 11.8871C7.25915 12.1416 7.60435 12.2846 7.96429 12.2846C8.32422 12.2846 8.66942 12.1416 8.92393 11.8871C9.17844 11.6326 9.32143 11.2874 9.32143 10.9275V6.17746C9.32143 5.99749 9.39292 5.82489 9.52018 5.69763C9.64743 5.57038 9.82003 5.49888 10 5.49888C10.18 5.49888 10.3526 5.57038 10.4798 5.69763C10.6071 5.82489 10.6786 5.99749 10.6786 6.17746V10.9275C10.6786 11.6473 10.3926 12.3377 9.88357 12.8467C9.37455 13.3558 8.68416 13.6417 7.96429 13.6417C7.24441 13.6417 6.55402 13.3558 6.045 12.8467C5.53597 12.3377 5.25 11.6473 5.25 10.9275V6.17746ZM3.02429 20.4546L19.31 15.7046C19.4828 15.6542 19.6685 15.6745 19.8263 15.761C19.9841 15.8476 20.101 15.9933 20.1514 16.166C20.2018 16.3388 20.1815 16.5245 20.095 16.6823C20.0084 16.8401 19.8628 16.9571 19.69 17.0075L3.40429 21.7575C3.23152 21.8078 3.0458 21.7875 2.88801 21.701C2.73021 21.6145 2.61325 21.4688 2.56286 21.296C2.51247 21.1233 2.53277 20.9375 2.61931 20.7797C2.70584 20.6219 2.85152 20.505 3.02429 20.4546Z" fill="#cc5500"/>
</svg>