<svg width="288" height="74" viewBox="0 0 288 74" fill="none" xmlns="http://www.w3.org/2000/svg">
<path d="M120.86 2.58588V36.6333H114.949V9.91555H114.87L104.309 36.6333H100.369L89.5717 9.91555H89.4929V36.6333H84.0547V2.58588H92.5666L102.339 27.8062H102.497L112.821 2.58588H120.86ZM125.747 5.18673C125.747 4.24096 126.062 3.45283 126.771 2.82232C127.48 2.19181 128.269 1.87656 129.214 1.87656C130.239 1.87656 131.106 2.19181 131.736 2.82232C132.367 3.45283 132.761 4.24096 132.761 5.18673C132.761 6.13249 132.446 6.92063 131.736 7.55113C131.027 8.18164 130.239 8.4969 129.214 8.4969C128.19 8.4969 127.402 8.18164 126.771 7.55113C126.141 6.84181 125.747 6.05368 125.747 5.18673ZM132.13 12.2011V36.6333H126.377V12.2011H132.13ZM149.548 32.4562C150.415 32.4562 151.361 32.2985 152.386 31.8257C153.41 31.4316 154.356 30.8799 155.223 30.2494V35.6087C154.277 36.1604 153.253 36.5545 152.07 36.7909C150.888 37.0274 149.627 37.185 148.208 37.185C144.583 37.185 141.667 36.0816 139.46 33.796C137.175 31.5104 136.071 28.5943 136.071 25.1265C136.071 21.1858 137.253 17.9545 139.539 15.4324C141.825 12.9104 145.056 11.6494 149.312 11.6494C150.415 11.6494 151.519 11.807 152.543 12.0435C153.647 12.2799 154.514 12.674 155.144 12.9892V18.5062C154.277 17.8757 153.331 17.324 152.464 17.0087C151.519 16.6935 150.573 16.457 149.627 16.457C147.342 16.457 145.529 17.1663 144.11 18.6638C142.692 20.1613 142.061 22.1316 142.061 24.6536C142.061 27.0968 142.77 29.0672 144.11 30.407C145.45 31.7468 147.263 32.4562 149.548 32.4562ZM171.537 11.807C172.01 11.807 172.404 11.807 172.798 11.8858C173.192 11.9646 173.508 12.0435 173.744 12.1223V17.9545C173.429 17.718 173.035 17.4816 172.404 17.324C171.774 17.1663 171.143 17.0087 170.276 17.0087C168.858 17.0087 167.675 17.6392 166.73 18.8214C165.784 20.0036 165.232 21.8163 165.232 24.3384V36.6333H159.479V12.2011H165.232V16.0629H165.311C165.863 14.7231 166.651 13.6985 167.675 12.9104C168.779 12.2011 170.04 11.807 171.537 11.807ZM174.059 24.8113C174.059 20.7918 175.242 17.5604 177.448 15.196C179.734 12.8316 182.886 11.6494 186.906 11.6494C190.689 11.6494 193.684 12.7528 195.812 15.0384C197.94 17.324 199.043 20.3977 199.043 24.2596C199.043 28.2002 197.861 31.3528 195.654 33.7172C193.369 36.0816 190.295 37.2638 186.354 37.2638C182.571 37.2638 179.576 36.1604 177.369 33.9536C175.163 31.668 174.059 28.5943 174.059 24.8113ZM180.049 24.5748C180.049 27.0968 180.601 29.0672 181.783 30.407C182.965 31.7468 184.62 32.4562 186.748 32.4562C188.797 32.4562 190.453 31.8257 191.556 30.407C192.659 29.0672 193.211 27.0968 193.211 24.4172C193.211 21.8163 192.659 19.846 191.556 18.4274C190.453 17.0875 188.797 16.3782 186.827 16.3782C184.699 16.3782 183.123 17.0875 181.941 18.5062C180.601 20.0036 180.049 21.974 180.049 24.5748ZM207.634 18.6638C207.634 19.4519 207.87 20.1613 208.422 20.6341C208.974 21.107 210.077 21.6587 211.89 22.368C214.175 23.3138 215.83 24.3384 216.697 25.4418C217.643 26.624 218.116 27.9638 218.116 29.6189C218.116 31.9045 217.249 33.7172 215.436 35.1358C213.703 36.5545 211.259 37.185 208.264 37.185C207.24 37.185 206.136 37.0274 204.875 36.7909C203.614 36.5545 202.59 36.2392 201.723 35.8451V30.1706C202.747 30.8799 203.93 31.5104 205.112 31.9045C206.294 32.2985 207.397 32.535 208.422 32.535C209.683 32.535 210.708 32.3774 211.259 31.9833C211.89 31.5892 212.205 31.0375 212.205 30.1706C212.205 29.3824 211.89 28.7519 211.259 28.1214C210.629 27.5697 209.368 26.9392 207.634 26.2299C205.506 25.3629 204.008 24.3384 203.142 23.235C202.275 22.1316 201.802 20.7129 201.802 18.979C201.802 16.7723 202.669 14.9596 204.403 13.5409C206.136 12.1223 208.422 11.4129 211.18 11.4129C212.047 11.4129 212.993 11.4918 214.018 11.7282C215.042 11.9646 215.988 12.2011 216.697 12.4375V18.0333C215.909 17.5604 215.042 17.0875 214.018 16.6935C212.993 16.2994 211.969 16.1418 211.023 16.1418C209.919 16.1418 209.053 16.3782 208.501 16.7723C207.949 17.324 207.634 17.8757 207.634 18.6638ZM220.559 24.8113C220.559 20.7918 221.742 17.5604 223.948 15.196C226.234 12.8316 229.386 11.6494 233.406 11.6494C237.189 11.6494 240.184 12.7528 242.312 15.0384C244.44 17.324 245.543 20.3977 245.543 24.2596C245.543 28.2002 244.361 31.3528 242.154 33.7172C239.869 36.0816 236.795 37.2638 232.854 37.2638C229.071 37.2638 226.076 36.1604 223.869 33.9536C221.742 31.668 220.559 28.5943 220.559 24.8113ZM226.549 24.5748C226.549 27.0968 227.101 29.0672 228.283 30.407C229.465 31.7468 231.12 32.4562 233.248 32.4562C235.297 32.4562 236.953 31.8257 238.056 30.407C239.159 29.0672 239.711 27.0968 239.711 24.4172C239.711 21.8163 239.159 19.846 238.056 18.4274C236.953 17.0875 235.297 16.3782 233.327 16.3782C231.199 16.3782 229.623 17.0875 228.441 18.5062C227.18 20.0036 226.549 21.974 226.549 24.5748ZM264.695 16.9299H256.104V36.6333H250.272V16.9299H246.174V12.2011H250.272V8.81215C250.272 6.29012 251.139 4.16215 252.794 2.50707C254.449 0.851979 256.577 0.0638428 259.178 0.0638428C259.887 0.0638428 260.518 0.142657 261.069 0.142657C261.621 0.142657 262.094 0.300284 262.488 0.457911V5.42317C262.33 5.34435 261.936 5.18673 261.464 5.0291C260.991 4.87147 260.439 4.79266 259.808 4.79266C258.626 4.79266 257.681 5.18673 257.05 5.89605C256.419 6.60537 256.104 7.78757 256.104 9.20622V12.1223H264.695V6.60537L270.448 4.87147V12.1223H276.28V16.8511H270.448V28.279C270.448 29.7765 270.764 30.8011 271.236 31.4316C271.788 32.0621 272.655 32.3774 273.837 32.3774C274.153 32.3774 274.547 32.2985 275.019 32.1409C275.492 31.9833 275.886 31.8257 276.202 31.5892V36.318C275.808 36.5545 275.256 36.7121 274.389 36.8697C273.522 37.0274 272.734 37.1062 271.867 37.1062C269.424 37.1062 267.611 36.4757 266.429 35.2146C265.247 33.9536 264.616 31.9833 264.616 29.3824L264.695 16.9299Z" fill="white"/>
<path d="M82.8828 65.0443L85.9209 64.7786C86.0648 65.9961 86.3968 66.9977 86.917 67.7835C87.4483 68.5583 88.2673 69.1891 89.3741 69.6761C90.4808 70.152 91.7259 70.39 93.1094 70.39C94.3379 70.39 95.4226 70.2074 96.3633 69.8421C97.3041 69.4769 98.0013 68.9788 98.4551 68.348C98.92 67.706 99.1524 67.0088 99.1524 66.2562C99.1524 65.4925 98.931 64.8284 98.4883 64.264C98.0456 63.6885 97.3151 63.207 96.2969 62.8197C95.6439 62.5651 94.1996 62.1722 91.9639 61.6409C89.7282 61.0986 88.1621 60.5895 87.2657 60.1136C86.1035 59.5049 85.2347 58.7523 84.6592 57.8558C84.0948 56.9482 83.8125 55.9355 83.8125 54.8177C83.8125 53.5892 84.1612 52.4437 84.8584 51.3812C85.5557 50.3076 86.5739 49.4941 87.9131 48.9407C89.2523 48.3874 90.7409 48.1107 92.3789 48.1107C94.183 48.1107 95.7712 48.404 97.1436 48.9906C98.527 49.5661 99.5895 50.4183 100.331 51.5472C101.073 52.6761 101.472 53.9544 101.527 55.3822L98.4385 55.6146C98.2725 54.0762 97.708 52.9141 96.7451 52.1282C95.7933 51.3424 94.3822 50.9495 92.5117 50.9495C90.5638 50.9495 89.1416 51.3092 88.2451 52.0286C87.3597 52.737 86.917 53.5947 86.917 54.6019C86.917 55.4762 87.2325 56.1956 87.8633 56.7601C88.4831 57.3245 90.099 57.9056 92.711 58.5032C95.334 59.0898 97.1325 59.6045 98.1065 60.0472C99.5231 60.7002 100.57 61.5303 101.245 62.5374C101.92 63.5335 102.257 64.6846 102.257 65.9906C102.257 67.2855 101.887 68.5085 101.145 69.6595C100.404 70.7995 99.335 71.6904 97.9405 72.3324C96.557 72.9632 94.9965 73.2786 93.2588 73.2786C91.0563 73.2786 89.208 72.9577 87.7139 72.3157C86.2308 71.6738 85.0632 70.7109 84.211 69.4271C83.3698 68.1322 82.9271 66.6712 82.8828 65.0443ZM106.292 51.9622V48.5257H109.28V51.9622H106.292ZM106.292 72.8636V55.2327H109.28V72.8636H106.292ZM113.779 72.8636V48.5257H116.767V72.8636H113.779ZM126.313 72.8636L119.606 55.2327H122.76L126.545 65.7913C126.955 66.9313 127.331 68.1156 127.674 69.3441C127.94 68.4144 128.311 67.2965 128.787 65.9906L132.705 55.2327H135.776L129.102 72.8636H126.313ZM150.485 67.1859L153.573 67.5677C153.086 69.3717 152.184 70.7718 150.867 71.7679C149.55 72.764 147.867 73.262 145.82 73.262C143.241 73.262 141.194 72.4707 139.677 70.888C138.172 69.2943 137.419 67.0641 137.419 64.1976C137.419 61.2314 138.183 58.9294 139.71 57.2913C141.238 55.6533 143.219 54.8343 145.654 54.8343C148.011 54.8343 149.937 55.6367 151.431 57.2415C152.925 58.8463 153.672 61.1042 153.672 64.015C153.672 64.1921 153.667 64.4577 153.656 64.8118H140.507C140.618 66.7487 141.166 68.2318 142.151 69.2611C143.136 70.2904 144.364 70.805 145.836 70.805C146.932 70.805 147.867 70.5172 148.642 69.9417C149.417 69.3662 150.031 68.4476 150.485 67.1859ZM140.673 62.3548H150.518C150.385 60.8717 150.009 59.7594 149.389 59.0179C148.437 57.8669 147.203 57.2913 145.687 57.2913C144.315 57.2913 143.158 57.7506 142.217 58.6693C141.288 59.5879 140.773 60.8164 140.673 62.3548ZM157.308 72.8636V55.2327H159.998V57.9056C160.684 56.6549 161.315 55.8304 161.89 55.432C162.477 55.0335 163.119 54.8343 163.816 54.8343C164.823 54.8343 165.847 55.1553 166.887 55.7972L165.858 58.5697C165.127 58.138 164.397 57.9222 163.667 57.9222C163.014 57.9222 162.427 58.1214 161.907 58.5198C161.387 58.9072 161.016 59.4495 160.794 60.1468C160.462 61.2093 160.296 62.3714 160.296 63.6331V72.8636H157.308ZM178.508 72.8636V48.5257H187.689C189.305 48.5257 190.539 48.6032 191.391 48.7581C192.586 48.9574 193.588 49.3392 194.396 49.9036C195.204 50.457 195.851 51.2373 196.338 52.2445C196.836 53.2516 197.085 54.3584 197.085 55.5648C197.085 57.6344 196.427 59.3887 195.11 60.8275C193.793 62.2552 191.413 62.9691 187.971 62.9691H181.729V72.8636H178.508ZM181.729 60.097H188.021C190.102 60.097 191.579 59.7096 192.454 58.9349C193.328 58.1601 193.765 57.07 193.765 55.6644C193.765 54.6462 193.505 53.7773 192.985 53.0579C192.476 52.3275 191.801 51.846 190.96 51.6136C190.417 51.4697 189.416 51.3978 187.955 51.3978H181.729V60.097ZM212.309 70.6888C211.202 71.6296 210.134 72.2936 209.105 72.681C208.087 73.0684 206.991 73.262 205.818 73.262C203.881 73.262 202.392 72.7917 201.352 71.8509C200.312 70.8991 199.792 69.6872 199.792 68.2152C199.792 67.3519 199.985 66.5661 200.373 65.8577C200.771 65.1383 201.286 64.5628 201.917 64.1312C202.558 63.6995 203.278 63.373 204.075 63.1517C204.661 62.9967 205.547 62.8473 206.731 62.7034C209.144 62.4157 210.92 62.0726 212.06 61.6741C212.071 61.2646 212.077 61.0046 212.077 60.8939C212.077 59.6764 211.794 58.8187 211.23 58.3206C210.466 57.6455 209.332 57.3079 207.827 57.3079C206.421 57.3079 205.381 57.557 204.706 58.055C204.042 58.542 203.549 59.4108 203.228 60.6615L200.306 60.263C200.572 59.0124 201.009 58.0052 201.618 57.2415C202.226 56.4668 203.106 55.8747 204.257 55.4652C205.408 55.0446 206.742 54.8343 208.258 54.8343C209.764 54.8343 210.987 55.0114 211.927 55.3656C212.868 55.7197 213.56 56.168 214.002 56.7103C214.445 57.2415 214.755 57.9167 214.932 58.7357C215.032 59.2448 215.082 60.1634 215.082 61.4915V65.4759C215.082 68.2539 215.142 70.0137 215.264 70.7552C215.397 71.4857 215.652 72.1885 216.028 72.8636H212.907C212.597 72.2438 212.398 71.5189 212.309 70.6888ZM212.06 64.015C210.975 64.4577 209.349 64.834 207.179 65.1439C205.951 65.321 205.082 65.5202 204.573 65.7415C204.064 65.9629 203.671 66.2894 203.394 66.721C203.117 67.1416 202.979 67.612 202.979 68.1322C202.979 68.929 203.278 69.5931 203.876 70.1243C204.484 70.6556 205.37 70.9212 206.532 70.9212C207.683 70.9212 208.707 70.6722 209.603 70.1741C210.5 69.665 211.158 68.9733 211.579 68.099C211.9 67.4238 212.06 66.4277 212.06 65.1107V64.015ZM219.697 72.8636V55.2327H222.386V57.9056C223.072 56.6549 223.703 55.8304 224.279 55.432C224.865 55.0335 225.507 54.8343 226.205 54.8343C227.212 54.8343 228.236 55.1553 229.276 55.7972L228.247 58.5697C227.516 58.138 226.786 57.9222 226.055 57.9222C225.402 57.9222 224.816 58.1214 224.295 58.5198C223.775 58.9072 223.405 59.4495 223.183 60.1468C222.851 61.2093 222.685 62.3714 222.685 63.6331V72.8636H219.697ZM237.577 70.1907L238.008 72.8304C237.167 73.0075 236.415 73.096 235.751 73.096C234.666 73.096 233.825 72.9245 233.227 72.5814C232.629 72.2383 232.209 71.79 231.965 71.2366C231.722 70.6722 231.6 69.4935 231.6 67.7005V57.557H229.409V55.2327H231.6V50.8665L234.572 49.0736V55.2327H237.577V57.557H234.572V67.8665C234.572 68.7187 234.622 69.2666 234.721 69.5101C234.832 69.7536 235.003 69.9473 235.236 70.0911C235.479 70.235 235.822 70.307 236.265 70.307C236.597 70.307 237.034 70.2682 237.577 70.1907ZM240.515 72.8636V55.2327H243.205V57.7396C244.5 55.8027 246.37 54.8343 248.816 54.8343C249.878 54.8343 250.852 55.028 251.738 55.4154C252.634 55.7917 253.304 56.2897 253.747 56.9095C254.189 57.5293 254.499 58.2653 254.676 59.1175C254.787 59.6709 254.842 60.6393 254.842 62.0228V72.8636H251.854V62.139C251.854 60.9215 251.738 60.014 251.505 59.4163C251.273 58.8076 250.858 58.3262 250.26 57.972C249.674 57.6068 248.982 57.4241 248.185 57.4241C246.912 57.4241 245.811 57.8281 244.881 58.6361C243.963 59.444 243.503 60.9769 243.503 63.2347V72.8636H240.515ZM271.51 67.1859L274.598 67.5677C274.111 69.3717 273.209 70.7718 271.892 71.7679C270.575 72.764 268.893 73.262 266.845 73.262C264.266 73.262 262.218 72.4707 260.702 70.888C259.196 69.2943 258.445 67.0641 258.445 64.1976C258.445 61.2314 259.209 58.9294 260.736 57.2913C262.263 55.6533 264.244 54.8343 266.679 54.8343C269.037 54.8343 270.962 55.6367 272.457 57.2415C273.951 58.8463 274.698 61.1042 274.698 64.015C274.698 64.1921 274.692 64.4577 274.681 64.8118H261.533C261.643 66.7487 262.191 68.2318 263.176 69.2611C264.161 70.2904 265.39 70.805 266.862 70.805C267.958 70.805 268.893 70.5172 269.668 69.9417C270.442 69.3662 271.057 68.4476 271.51 67.1859ZM261.699 62.3548H271.544C271.411 60.8717 271.034 59.7594 270.415 59.0179C269.463 57.8669 268.229 57.2913 266.712 57.2913C265.34 57.2913 264.183 57.7506 263.243 58.6693C262.313 59.5879 261.798 60.8164 261.699 62.3548ZM278.334 72.8636V55.2327H281.023V57.9056C281.709 56.6549 282.34 55.8304 282.916 55.432C283.502 55.0335 284.143 54.8343 284.84 54.8343C285.848 54.8343 286.872 55.1553 287.913 55.7972L286.883 58.5697C286.153 58.138 285.422 57.9222 284.692 57.9222C284.039 57.9222 283.452 58.1214 282.932 58.5198C282.412 58.9072 282.041 59.4495 281.82 60.1468C281.488 61.2093 281.322 62.3714 281.322 63.6331V72.8636H278.334Z" fill="white"/>
<path d="M34.5555 1.86365H0.355469V36.0636H34.5555V1.86365Z" fill="#F25022"/>
<path d="M72.3563 1.86365H38.1562V36.0636H72.3563V1.86365Z" fill="#7FBA00"/>
<path d="M34.5555 39.6635H0.355469V73.8635H34.5555V39.6635Z" fill="#00A4EF"/>
<path d="M72.3563 39.6635H38.1562V73.8635H72.3563V39.6635Z" fill="#FFB900"/>
</svg>
