<svg width="35px" height="43px" viewBox="0 0 35 43" fill="none" xmlns="http://www.w3.org/2000/svg" transform="rotate(0) scale(1, 1)">
<path d="M27.4704 22.0403V2.04038C27.4704 1.684 27.1816 1.39515 26.8253 1.39515H7.35982C7.01761 1.39515 6.6894 1.53117 6.44747 1.7731L2.04201 6.17856C1.8 6.42049 1.66406 6.7487 1.66406 7.09091V36.2338C1.66406 36.5901 1.95291 36.8789 2.30921 36.8789H15.8576" stroke="#cc5500" stroke-width="1.5" stroke-miterlimit="10" stroke-linecap="round" stroke-linejoin="round"/>
<path d="M7.47048 1.39467V6.55594C7.47048 6.91232 7.18163 7.20117 6.82534 7.20117H1.66406" stroke="#cc5500" stroke-width="1.5" stroke-miterlimit="10" stroke-linecap="round" stroke-linejoin="round"/>
<path d="M10.0507 23.3301H7.46999C6.75739 23.3301 6.17969 22.7523 6.17969 22.0398V19.459C6.17969 18.7465 6.75739 18.1687 7.46999 18.1687H10.0507C10.7633 18.1687 11.341 18.7465 11.341 19.459V22.0398C11.341 22.7523 10.7633 23.3301 10.0507 23.3301Z" stroke="#cc5500" stroke-width="1.5" stroke-miterlimit="10" stroke-linecap="round" stroke-linejoin="round"/>
<path d="M10.0507 31.0723H7.46999C6.75739 31.0723 6.17969 30.4946 6.17969 29.782V27.2013C6.17969 26.4887 6.75739 25.911 7.46999 25.911H10.0507C10.7633 25.911 11.341 26.4887 11.341 27.2013V29.782C11.341 30.4946 10.7633 31.0723 10.0507 31.0723Z" stroke="#cc5500" stroke-width="1.5" stroke-miterlimit="10" stroke-linecap="round" stroke-linejoin="round"/>
<path d="M8.11719 20.1042L8.76242 21.3945L11.9882 18.1687" stroke="#cc5500" stroke-width="1.5" stroke-miterlimit="10" stroke-linecap="round" stroke-linejoin="round"/>
<path d="M8.11719 27.8464L8.76242 29.1367L11.9882 25.911" stroke="#cc5500" stroke-width="1.5" stroke-miterlimit="10" stroke-linecap="round" stroke-linejoin="round"/>
<path d="M14.5703 19.459H19.0864" stroke="#cc5500" stroke-width="1.5" stroke-miterlimit="10" stroke-linecap="round" stroke-linejoin="round"/>
<path d="M14.5703 22.041H23.6026" stroke="#cc5500" stroke-width="1.5" stroke-miterlimit="10" stroke-linecap="round" stroke-linejoin="round"/>
<path d="M14.5703 27.2012H18.4413" stroke="#cc5500" stroke-width="1.5" stroke-miterlimit="10" stroke-linecap="round" stroke-linejoin="round"/>
<path d="M14.5703 29.7812H16.5058" stroke="#cc5500" stroke-width="1.5" stroke-miterlimit="10" stroke-linecap="round" stroke-linejoin="round"/>
<path d="M22.3085 35.588L19.761 36.4373C18.9706 36.7007 18.4375 37.4403 18.4375 38.2733V41.3945" stroke="#cc5500" stroke-width="1.5" stroke-miterlimit="10" stroke-linecap="round" stroke-linejoin="round"/>
<path d="M22.3125 35.588L23.2571 37.4772C23.4372 37.8372 23.8992 37.9463 24.2212 37.7048L26.1835 36.2332L24.0504 34.6334C23.7936 34.4408 23.4342 34.4663 23.2071 34.6933L22.3125 35.588Z" stroke="#cc5500" stroke-width="1.5" stroke-miterlimit="10" stroke-linecap="round" stroke-linejoin="round"/>
<path d="M30.0547 35.588L32.6022 36.4373C33.3925 36.7007 33.9257 37.4403 33.9257 38.2733V41.3945" stroke="#cc5500" stroke-width="1.5" stroke-miterlimit="10" stroke-linecap="round" stroke-linejoin="round"/>
<path d="M30.0507 35.588L29.106 37.4772C28.926 37.8372 28.4639 37.9463 28.1419 37.7048L26.1797 36.2332L28.3127 34.6334C28.5695 34.4408 28.929 34.4663 29.156 34.6933L30.0507 35.588Z" stroke="#cc5500" stroke-width="1.5" stroke-miterlimit="10" stroke-linecap="round" stroke-linejoin="round"/>
<path d="M29.4048 28.7648V29.7821C29.4048 31.5636 27.9605 33.0078 26.179 33.0078C24.3974 33.0078 22.9531 31.5636 22.9531 29.7821V28.6072" stroke="#cc5500" stroke-width="1.5" stroke-miterlimit="10" stroke-linecap="round" stroke-linejoin="round"/>
<path d="M28.1189 24.6205H24.2479C23.1791 24.6205 22.3125 25.487 22.3125 26.5559V27.8462C22.3125 28.3779 22.9194 28.6814 23.3448 28.3624L24.8931 27.2011C24.8931 27.2011 26.5954 28.9034 29.4677 28.5829C29.7986 28.5459 30.0544 28.2704 30.0544 27.9374V26.5559C30.0544 25.487 29.1879 24.6205 28.1189 24.6205Z" stroke="#cc5500" stroke-width="1.5" stroke-miterlimit="10" stroke-linecap="round" stroke-linejoin="round"/>
<path d="M26.1797 36.2333V41.3945" stroke="#cc5500" stroke-width="1.5" stroke-miterlimit="10" stroke-linecap="round" stroke-linejoin="round"/>
<path d="M18.578 11.2508L18.5631 11.2422C17.9352 10.8797 17.9352 9.9735 18.5631 9.61101L18.5793 9.60167C19.1891 9.24964 19.3987 8.47025 19.0476 7.85987L19.0396 7.84594C18.6815 7.22928 17.8918 7.01874 17.2742 7.37536L17.2728 7.37608C16.6449 7.73858 15.8602 7.28546 15.8602 6.56055V6.55564C15.8602 5.84305 15.2824 5.26535 14.5699 5.26535H14.5538C13.85 5.26535 13.2796 5.83589 13.2796 6.53963V6.56055C13.2796 7.28546 12.4947 7.73858 11.8668 7.37608L11.8655 7.37536C11.2479 7.01874 10.4582 7.22928 10.1 7.84594L10.092 7.85987C9.74097 8.47025 9.95055 9.24964 10.5603 9.60167L10.5765 9.61101C11.2044 9.9735 11.2044 10.8797 10.5765 11.2422L10.5756 11.2427C9.95795 11.5994 9.74516 12.3885 10.1 13.0072C10.459 13.6237 11.249 13.8339 11.8668 13.4771C12.4947 13.1146 13.2796 13.5677 13.2796 14.2927V14.3105C13.2796 15.0148 13.8495 15.5861 14.5538 15.5879H14.5699H14.5859C15.2901 15.5861 15.8602 15.0148 15.8602 14.3105V14.2927C15.8602 13.5677 16.6449 13.1146 17.2728 13.4771C17.8906 13.8339 18.6806 13.6237 19.0396 13.0072L19.0476 12.9933C19.398 12.3823 19.1879 11.603 18.578 11.2508Z" stroke="#cc5500" stroke-width="1.5" stroke-miterlimit="10" stroke-linecap="round" stroke-linejoin="round"/>
<path d="M15.8618 10.4265C15.8618 11.1391 15.2841 11.7168 14.5715 11.7168C13.8589 11.7168 13.2812 11.1391 13.2812 10.4265C13.2812 9.71391 13.8589 9.1362 14.5715 9.1362C15.2841 9.1362 15.8618 9.71391 15.8618 10.4265Z" stroke="#cc5500" stroke-width="1.5" stroke-miterlimit="10" stroke-linecap="round" stroke-linejoin="round"/>
</svg>