<svg width="33px" height="39px" viewBox="0 0 33 39" fill="none" xmlns="http://www.w3.org/2000/svg" transform="rotate(0) scale(1, 1)">
<path d="M26.2173 12.6172H6.94046C6.51165 12.6172 6.16406 12.9648 6.16406 13.3936V29.5588C6.16406 29.9876 6.51165 30.3352 6.94046 30.3352H10.3771V35.783C10.3771 37.0469 11.4017 38.0717 12.6658 38.0717C13.9298 38.0717 14.9545 37.047 14.9545 35.783V30.3352H18.1557V35.783C18.1557 37.0469 19.1803 38.0717 20.4444 38.0717C21.7083 38.0717 22.7331 37.047 22.7331 35.783V30.3352H26.2174C26.6462 30.3352 26.9938 29.9876 26.9938 29.5588V13.3936C26.9937 12.9648 26.6462 12.6172 26.2173 12.6172Z" fill="#cc5500"/>
<path d="M2.9059 12.6133C1.64193 12.6133 0.617188 13.6379 0.617188 14.902V24.1979C0.617188 25.4618 1.64183 26.4866 2.9059 26.4866C4.16988 26.4866 5.19462 25.4619 5.19462 24.1979V14.902C5.19453 13.638 4.16988 12.6133 2.9059 12.6133Z" fill="#cc5500"/>
<path d="M30.2653 12.6133C29.0013 12.6133 27.9766 13.6379 27.9766 14.902V24.1979C27.9766 25.4618 29.0012 26.4866 30.2653 26.4866C31.5293 26.4866 32.554 25.4619 32.554 24.1979V14.902C32.554 13.638 31.5293 12.6133 30.2653 12.6133Z" fill="#cc5500"/>
<path d="M7.09751 11.4821H26.0169C26.5104 11.4821 26.8785 11.0274 26.7772 10.5444C26.1514 7.56167 24.2524 5.04806 21.6756 3.59599L23.2929 0.677767C23.4024 0.480196 23.331 0.231208 23.1334 0.121753C22.9354 0.012022 22.6868 0.0836737 22.5773 0.281245L20.9477 3.22145C19.613 2.60206 18.1255 2.25613 16.5572 2.25613C14.9888 2.25613 13.5013 2.60206 12.1666 3.22145L10.537 0.281153C10.4274 0.0834898 10.1784 0.0122059 9.98097 0.121661C9.7834 0.231116 9.71202 0.480104 9.82147 0.677675L11.4388 3.5959C8.86204 5.04806 6.96304 7.56158 6.33721 10.5444C6.23576 11.0274 6.60386 11.4821 7.09751 11.4821ZM22.2025 7.13305C22.2025 7.61888 21.8087 8.01283 21.3227 8.01283C20.8369 8.01283 20.4429 7.61897 20.4429 7.13305C20.4429 6.64721 20.8368 6.25327 21.3227 6.25327C21.8087 6.25327 22.2025 6.64721 22.2025 7.13305ZM11.7915 6.25327C12.2773 6.25327 12.6713 6.64712 12.6713 7.13305C12.6713 7.61888 12.2774 8.01283 11.7915 8.01283C11.3056 8.01283 10.9117 7.61897 10.9117 7.13305C10.9117 6.64721 11.3056 6.25327 11.7915 6.25327Z" fill="#cc5500"/>
</svg>