<svg width="33px" height="39px" viewBox="0 0 33 39" fill="none" xmlns="http://www.w3.org/2000/svg" transform="rotate(0) scale(1, 1)">
<path d="M23.3699 0.0703125C21.344 0.210437 18.9762 1.50718 17.5963 3.19579C16.3376 4.72766 15.3021 7.00289 15.7058 9.214C17.9193 9.28288 20.2064 7.95526 21.5317 6.23815C22.7714 4.63978 23.7095 2.3788 23.3699 0.0703125Z" fill="#cc5500"/>
<path d="M31.374 12.8194C29.4289 10.3803 26.6953 8.96484 24.1137 8.96484C20.7056 8.96484 19.264 10.5965 16.8961 10.5965C14.4546 10.5965 12.5998 8.96959 9.65242 8.96959C6.75732 8.96959 3.67459 10.739 1.71997 13.7647C-1.02788 18.0254 -0.557637 26.0362 3.89546 32.8596C5.48907 35.301 7.61706 38.0465 10.4005 38.0703C12.8777 38.094 13.5759 36.4814 16.9317 36.4648C20.2876 36.4458 20.9241 38.0917 23.3965 38.0655C26.1823 38.0442 28.4267 35.0018 30.0203 32.5603C31.1627 30.81 31.5878 29.9288 32.4736 27.9528C26.0303 25.4995 24.9972 16.3368 31.374 12.8194Z" fill="#cc5500"/>
</svg>