<svg width="181" height="86" viewBox="0 0 181 86" fill="none" xmlns="http://www.w3.org/2000/svg">
<path d="M48.125 15.9043H66.4229V19.4312H59.3853V38.4766H55.1627V19.4312H48.125V15.9043ZM65.3673 21.9001H68.8861V25.0743C68.8861 24.7216 69.238 24.3689 69.5899 23.6635C69.9417 22.9581 70.2936 22.9581 70.6455 22.6055C70.9974 22.2528 71.7011 21.9001 72.053 21.9001C72.4049 21.5474 73.1087 21.5474 73.8124 21.5474C74.1643 21.5474 74.5162 21.5474 74.5162 21.5474H74.8681V25.0743C74.5162 25.0743 74.5162 25.0743 74.1643 25.0743C73.8124 25.0743 73.8124 25.0743 73.4606 25.0743C72.7568 25.0743 72.4049 25.0743 71.7011 25.427C70.9974 25.7797 70.6455 26.1324 70.2936 26.4851C69.9417 26.8378 69.5898 27.5431 69.238 28.2485C68.8861 28.9539 68.8861 29.6593 68.8861 30.7174V38.4766H65.3673V21.9001ZM91.4066 38.4766H87.8878V36.3605C87.5359 37.0658 86.8321 37.7712 85.7765 38.4766C85.0727 38.8293 84.017 39.182 82.9614 39.182C80.8501 39.182 79.4426 38.8293 78.3869 37.4185C77.3313 36.0078 76.9794 34.597 76.9794 32.4808V22.2528H80.4982V32.1281C80.4982 33.5389 80.8501 34.597 81.202 35.3024C81.9057 36.0078 82.6095 36.3605 83.6652 36.3605C84.3689 36.3605 85.0727 36.3605 85.4246 36.0078C85.7765 35.6551 86.4802 35.3024 86.4802 34.9497C86.8321 34.597 87.184 34.2443 87.184 33.5389C87.184 32.8335 87.5359 32.4808 87.5359 31.7755V22.2528H91.0547V38.4766H91.4066ZM97.3886 33.1862C97.3886 34.2443 97.7405 34.9497 98.4442 35.3024C99.148 35.6551 99.8518 36.0078 100.907 36.0078C101.259 36.0078 101.611 36.0078 101.963 36.0078C102.315 36.0078 102.667 36.0078 103.019 35.6551C103.371 35.6551 103.722 35.3024 104.074 34.9497C104.426 34.597 104.426 34.2443 104.426 33.8916C104.426 33.5389 104.074 33.1862 104.074 32.8335C103.722 32.4808 103.371 32.4808 103.019 32.1281C102.667 32.1281 101.963 31.7755 101.259 31.7755C100.556 31.7755 99.8518 31.4228 99.4999 31.4228C98.7961 31.4228 98.0924 31.0701 97.7405 30.7174C97.3886 30.3647 96.6848 30.3647 95.9811 30.012C95.6292 29.6593 94.9254 29.3066 94.9254 28.6012C94.5735 27.8958 94.5735 27.1905 94.5735 26.4851C94.5735 25.427 94.9254 24.7216 95.2773 24.3689C95.6292 24.0162 96.3329 23.3108 97.0367 22.9581C97.7405 22.6055 98.4442 22.2528 99.148 22.2528C99.8518 22.2528 100.907 21.9001 101.611 21.9001C102.315 21.9001 103.371 21.9001 104.074 22.2528C104.778 22.2528 105.482 22.6055 106.186 22.9581C106.889 23.3108 107.241 24.0162 107.593 24.3689C107.945 25.0743 108.297 25.7797 108.297 26.8378H104.426C104.426 26.1324 103.722 25.427 103.371 25.0743C102.315 24.7216 101.611 24.3689 100.907 24.3689C100.556 24.3689 100.204 24.3689 99.8518 24.3689C99.4999 24.3689 99.148 24.3689 98.7961 24.7216C98.4442 24.7216 98.0924 25.0743 98.0924 25.0743C97.7405 25.427 97.7405 25.427 97.7405 25.7797C97.7405 26.1324 97.7405 26.4851 98.0924 26.8378C98.4442 27.1905 98.7961 27.1905 99.148 27.5431C99.4999 27.5431 100.204 27.8958 100.907 27.8958C101.611 27.8958 102.315 28.2485 103.019 28.2485C103.722 28.2485 104.426 28.6012 104.778 28.9539C105.482 29.3066 105.834 29.3066 106.538 29.6593C107.241 30.012 107.593 30.3647 107.593 31.0701C107.945 31.7755 107.945 32.1281 107.945 33.1862C107.945 34.2443 107.593 34.9497 107.241 35.6551C106.889 36.3605 106.186 36.7132 105.482 37.4185C105.13 38.1239 104.426 38.4766 103.722 38.4766C103.019 38.4766 101.963 38.8293 101.259 38.8293C100.204 38.8293 99.148 38.8293 98.4442 38.4766C97.7405 38.1239 96.6848 37.7712 96.3329 37.4185C95.6292 37.0658 95.2773 36.3605 94.9254 35.6551C94.2216 34.9497 93.8698 34.2443 93.8698 33.1862H97.3886ZM109.353 21.9001H112.168V17.3151H115.687V22.2528H118.853V25.0743H115.687V33.8916C115.687 34.2443 115.687 34.597 115.687 34.9497C115.687 35.3024 115.686 35.3024 116.038 35.6551C116.39 36.0078 116.39 36.0078 116.39 36.0078C116.742 36.0078 117.094 36.0078 117.446 36.0078C117.798 36.0078 117.798 36.0078 118.15 36.0078C118.502 36.0078 118.502 36.0078 118.853 36.0078V38.4766C118.502 38.4766 118.15 38.4766 117.798 38.4766C117.446 38.4766 117.094 38.4766 116.742 38.4766C115.686 38.4766 114.983 38.4766 114.631 38.1239C113.927 38.1239 113.575 37.7712 113.223 37.4185C112.871 37.0658 112.52 36.7131 112.52 36.0078C112.52 35.6551 112.168 34.9497 112.168 34.2443V24.7216H109.353V21.9001ZM121.317 21.9001H124.835V24.3689C125.187 23.3108 125.891 22.6054 126.947 22.2528C128.002 21.9001 128.706 21.5474 129.762 21.5474C131.169 21.5474 132.225 21.9001 133.281 22.2528C134.336 22.6054 135.04 23.3108 135.744 24.0162C136.448 24.7216 136.799 25.7797 137.151 26.8378C137.503 27.8958 137.503 28.9539 137.503 30.3647C137.503 31.4228 137.503 32.4808 137.151 33.5389C136.799 34.597 136.448 35.3024 135.744 36.3605C135.04 37.0658 134.336 37.7712 133.633 38.1239C132.577 38.4766 131.873 38.8293 130.466 38.8293C130.114 38.8293 129.41 38.8293 129.058 38.8293C128.706 38.8293 128.002 38.4766 127.651 38.4766C127.299 38.1239 126.595 38.1239 126.243 37.7712C125.891 37.4185 125.539 37.0658 125.187 36.7131V44.8251H121.669V21.9001H121.317ZM133.984 30.3647C133.984 29.6593 133.984 28.9539 133.633 28.2485C133.281 27.5431 133.281 26.8378 132.929 26.4851C132.577 26.1324 132.225 25.427 131.521 25.0743C130.817 24.7216 130.466 24.7216 129.41 24.7216C128.002 24.7216 126.595 25.0743 125.891 26.1324C125.187 27.1905 124.835 28.6012 124.835 30.3647C124.835 31.0701 124.835 32.1281 125.187 32.4808C125.539 33.1862 125.539 33.8916 126.243 34.2443C126.595 34.597 126.947 35.3024 127.651 35.3024C128.354 35.6551 128.706 35.6551 129.41 35.6551C130.114 35.6551 130.817 35.6551 131.521 35.3024C132.225 34.9497 132.577 34.597 132.929 33.8916C133.281 33.1862 133.633 32.8335 133.633 32.1281C133.633 31.7755 133.984 31.0701 133.984 30.3647ZM140.318 15.9043H143.837V19.4312H140.318V15.9043ZM140.318 21.9001H143.837V38.4766H140.318V21.9001ZM147.004 15.9043H150.523V38.4766H147.004V15.9043ZM161.431 38.8293C160.024 38.8293 158.968 38.4766 157.912 38.1239C156.857 37.7712 156.153 37.0658 155.449 36.3605C154.745 35.6551 154.042 34.597 153.69 33.5389C153.338 32.4808 152.986 31.4228 152.986 30.012C152.986 28.6012 153.338 27.5431 153.69 26.4851C154.042 25.427 154.745 24.3689 155.449 23.6635C156.153 22.9581 156.857 22.2528 157.912 21.9001C158.968 21.5474 160.024 21.1947 161.431 21.1947C162.839 21.1947 163.894 21.5474 164.95 21.9001C166.006 22.2528 166.71 22.9581 167.413 23.6635C168.117 24.3689 168.821 25.427 169.173 26.4851C169.525 27.5431 169.876 28.6012 169.876 30.012C169.876 31.4228 169.525 32.4808 169.173 33.5389C168.821 34.597 168.117 35.6551 167.413 36.3605C166.71 37.0658 166.006 37.7712 164.95 38.1239C163.894 38.4766 162.839 38.8293 161.431 38.8293ZM161.431 36.0078C162.135 36.0078 162.839 36.0078 163.543 35.6551C164.246 35.3024 164.598 34.9497 164.95 34.2443C165.302 33.5389 165.654 33.1862 165.654 32.4808C165.654 31.7755 166.006 31.0701 166.006 30.3647C166.006 29.6593 166.006 28.9539 165.654 28.2485C165.654 27.5431 165.302 26.8378 164.95 26.4851C164.598 26.1324 164.246 25.427 163.543 25.0743C162.839 24.7216 162.135 24.7216 161.431 24.7216C160.727 24.7216 160.024 24.7216 159.32 25.0743C158.616 25.427 158.264 25.7797 157.912 26.4851C157.561 27.1905 157.209 27.5431 157.209 28.2485C157.209 28.9539 156.857 29.6593 156.857 30.3647C156.857 31.0701 156.857 31.7755 157.209 32.4808C157.209 33.1862 157.561 33.8916 157.912 34.2443C158.264 34.9497 158.616 35.3024 159.32 35.6551C160.024 35.6551 160.727 36.0078 161.431 36.0078ZM170.932 21.9001H173.747V17.3151H177.266V22.2528H180.433V25.0743H177.266V33.8916C177.266 34.2443 177.266 34.597 177.266 34.9497C177.266 35.3024 177.266 35.3024 177.618 35.6551C177.97 36.0078 177.97 36.0078 177.97 36.0078C178.322 36.0078 178.674 36.0078 179.025 36.0078C179.377 36.0078 179.377 36.0078 179.729 36.0078C180.081 36.0078 180.081 36.0078 180.433 36.0078V38.4766C180.081 38.4766 179.729 38.4766 179.377 38.4766C179.025 38.4766 178.674 38.4766 178.322 38.4766C177.266 38.4766 176.562 38.4766 176.21 38.1239C175.507 38.1239 175.155 37.7712 174.803 37.4185C174.451 37.0658 174.099 36.7131 174.099 36.0078C174.099 35.6551 173.747 34.9497 173.747 34.2443V24.7216H170.932V21.9001Z" fill="black"/>
<path d="M43.8984 15.9024H27.36L22.4336 0.03125L17.1554 15.9024H0.96875L13.9884 25.4251L9.06205 41.2963L22.4336 31.4209L35.4533 41.2963L30.5269 25.4251L43.8984 15.9024Z" fill="#00B67A"/>
<path d="M31.6255 28.9468L30.5699 25.4199L22.4766 31.4157L31.6255 28.9468Z" fill="#005128"/>
<path d="M34.7495 51.1719H0.96875V85.0303H34.7495V51.1719Z" fill="#00B67A"/>
<path d="M70.9682 51.1719H37.1875V85.0303H70.9682V51.1719Z" fill="#00B67A"/>
<path d="M107.539 51.1719H73.7578V85.0303H107.539V51.1719Z" fill="#00B67A"/>
<path d="M143.867 51.1719H110.086V85.0303H143.867V51.1719Z" fill="#00B67A"/>
<path d="M180.468 51.1719H146.688V85.0303H180.468V51.1719Z" fill="#DCDCE6"/>
<path d="M146.688 51.1719H180.432V84.6777H146.688V51.1719Z" fill="#00B67A"/>
<path d="M17.5496 73.7437L22.8279 72.3329L24.9392 79.0341L17.5496 73.7437ZM29.5136 65.2791H20.3647L17.5496 56.8145L14.7346 65.2791H5.9375L13.327 70.5694L10.512 79.0341L17.9015 73.7437L22.476 70.5694L29.5136 65.2791Z" fill="white"/>
<path d="M54.1206 73.7437L59.3988 72.3329L61.5101 79.0341L54.1206 73.7437ZM65.7327 65.2791H56.5838L53.7687 56.8145L50.9536 65.2791H41.8047L49.1942 70.5694L46.3792 79.0341L53.7687 73.7437L58.3432 70.5694L65.7327 65.2791Z" fill="white"/>
<path d="M90.6753 73.7437L95.9535 72.3329L98.0648 79.0341L90.6753 73.7437ZM102.287 65.2791H93.1384L90.3234 56.8145L87.5083 65.2791H78.3594L85.7489 70.5694L83.2857 79.0341L90.6753 73.7437L95.2498 70.5694L102.287 65.2791Z" fill="white"/>
<path d="M126.925 73.7437L132.203 72.3329L134.314 79.0341L126.925 73.7437ZM138.889 65.2791H129.74L126.925 56.8145L124.11 65.2791H114.961L122.35 70.5694L119.535 79.0341L126.925 73.7437L131.499 70.5694L138.889 65.2791Z" fill="white"/>
<path d="M163.495 73.7437L168.774 72.3329L170.885 79.0341L163.495 73.7437ZM175.107 65.2791H165.958L163.143 56.8145L160.68 65.2791H151.531L158.921 70.5694L156.106 79.0341L163.495 73.7437L168.07 70.5694L175.107 65.2791Z" fill="white"/>
</svg>
