<svg width="184" height="86" viewBox="0 0 184 86" fill="none" xmlns="http://www.w3.org/2000/svg">
<path d="M48.3047 0.03125H56.6951V50.6068H48.3047V0.03125Z" fill="#173139"/>
<path d="M85.8652 34.5766C85.8652 42.4122 79.2988 43.1246 77.11 43.1246C72.0028 43.1246 71.2732 38.4944 71.2732 36.0012V16.4121H62.8828V35.6451C62.8828 40.2752 64.342 44.5492 67.2604 47.0424C69.814 49.5356 73.0972 50.604 77.11 50.604C80.0284 50.604 83.6764 49.8917 85.8652 47.7547V50.604H94.2556V16.4121H85.8652V34.5766Z" fill="#173139"/>
<path d="M110.655 3.94531H102.264V16.4111H96.0625V24.2468H102.264V50.6031H110.655V24.2468H116.856V16.4111H110.655V3.94531Z" fill="#173139"/>
<path d="M143.127 40.2747C141.303 41.6993 138.749 42.7678 136.196 42.7678C130.359 42.7678 126.346 38.4938 126.346 32.7952C126.346 27.0965 130.359 23.1787 136.196 23.1787C138.749 23.1787 141.303 23.891 143.127 25.6719L144.221 26.7404L150.058 21.3979L148.599 20.3294C145.316 17.48 140.938 15.6992 136.196 15.6992C125.981 15.6992 118.32 23.1787 118.32 33.1514C118.32 43.124 125.981 50.6035 136.196 50.6035C140.938 50.6035 145.316 48.8227 148.599 45.9733L150.058 44.9048L144.221 39.2062L143.127 40.2747Z" fill="#173139"/>
<path d="M179.583 19.2642C177.029 16.7711 174.476 15.7026 170.463 15.7026C167.544 15.7026 164.626 16.4149 162.437 18.5519V0.03125H154.047V50.6068H162.437V31.73C162.437 23.8944 167.909 23.1821 170.098 23.1821C175.205 23.1821 174.84 27.8122 174.84 30.3054V50.2507H183.231V30.6615C183.231 26.0314 182.136 21.7574 179.583 19.2642Z" fill="#173139"/>
<path d="M135.837 38.8544C139.06 38.8544 141.674 36.303 141.674 33.1557C141.674 30.0084 139.06 27.457 135.837 27.457C132.613 27.457 130 30.0084 130 33.1557C130 36.303 132.613 38.8544 135.837 38.8544Z" fill="#EF4335"/>
<path d="M36.6098 38.1384C33.6914 40.9877 29.3138 42.7685 24.5714 42.7685C15.4514 42.7685 8.88498 35.6452 8.88498 26.0287C8.88498 16.4122 15.4514 9.28892 24.9362 9.28892C29.3138 9.28892 33.6914 11.0697 36.9746 14.2752L38.069 15.3437L43.541 10.0013L42.4466 8.93275C37.7042 4.30259 31.5026 1.80943 24.9362 1.80943C11.0738 1.45327 0.859375 12.1383 0.859375 26.0287C0.859375 39.9192 11.0738 50.6042 24.5714 50.6042C31.1378 50.6042 37.7042 48.111 42.0818 43.4809L43.1762 42.4124L37.7042 37.0699L36.6098 38.1384Z" fill="#173139"/>
<path d="M13.7577 59.5098L16.6922 68.3273H26.1882L18.5058 73.7769L21.4402 82.5944L13.7577 77.1449L6.07524 82.5944L9.00969 73.7769L1.3272 68.3273H10.8233L13.7577 59.5098Z" fill="#EF4335"/>
<path d="M52.8593 59.5098L55.7937 68.3273H65.2898L57.6073 73.7769L60.5418 82.5944L52.8593 77.1449L45.1768 82.5944L48.1112 73.7769L40.4288 68.3273H49.9248L52.8593 59.5098Z" fill="#EF4335"/>
<path d="M91.9609 59.5098L94.8953 68.3273H104.391L96.7089 73.7769L99.6433 82.5944L91.9609 77.1449L84.2784 82.5944L87.2128 73.7769L79.5303 68.3273H89.0264L91.9609 59.5098Z" fill="#EF4335"/>
<path d="M131.055 59.5098L133.989 68.3273H143.485L135.803 73.7769L138.737 82.5944L131.055 77.1449L123.372 82.5944L126.307 73.7769L118.624 68.3273H128.12L131.055 59.5098Z" fill="#EF4335"/>
<path d="M170.156 59.5098L173.091 68.3273H182.587L174.904 73.7769L177.839 82.5944L170.156 77.1449L162.474 82.5944L165.408 73.7769L157.726 68.3273H167.222L170.156 59.5098Z" fill="#EF4335"/>
</svg>
